{
    "asset": {
        "copyright": "(C)2023 post",
        "generator": "maya2glTF v1.4.0 3d7ba8eaf03e",
        "version": "2.0"
    },
    "scenes": [
        {
            "nodes": [
                0
            ]
        }
    ],
    "scene": 0,
    "nodes": [
        {
            "name": "stage2a_GEO",
            "children": [
                1
            ],
            "translation": [
                0.0,
                0.0,
                -4.5126953125
            ]
        },
        {
            "name": "stage2a_GEO:PIV",
            "mesh": 0,
            "translation": [
                0.0,
                0.0,
                4.5126953125
            ]
        }
    ],
    "meshes": [
        {
            "name": "stage2a_GEOShape",
            "extras": {
                "targetNames": []
            },
            "primitives": [
                {
                    "attributes": {
                        "NORMAL": 1,
                        "POSITION": 2,
                        "TANGENT": 3,
                        "TEXCOORD_0": 4
                    },
                    "indices": 0,
                    "mode": 4,
                    "material": 0
                },
                {
                    "attributes": {
                        "NORMAL": 6,
                        "POSITION": 7,
                        "TANGENT": 8,
                        "TEXCOORD_0": 9,
                        "TEXCOORD_1": 10
                    },
                    "indices": 5,
                    "mode": 4,
                    "material": 0
                }
            ]
        }
    ],
    "materials": [
        {
            "name": "stage2",
            "pbrMetallicRoughness": {
                "baseColorFactor": [
                    0.800000011920929,
                    0.800000011920929,
                    0.800000011920929,
                    1.0
                ],
                "baseColorTexture": {
                    "index": 0
                },
                "metallicFactor": 0.0,
                "roughnessFactor": 1.0
            }
        }
    ],
    "textures": [
        {
            "sampler": 0,
            "source": 0
        }
    ],
    "images": [
        {
            "uri": "stg2_colour.png"
        }
    ],
    "samplers": [
        {
            "magFilter": 9729,
            "minFilter": 9987,
            "wrapS": 10497,
            "wrapT": 10497
        }
    ],
    "accessors": [
        {
            "name": "stage2a_GEOShape#0/indices",
            "bufferView": 0,
            "byteOffset": 0,
            "componentType": 5123,
            "count": 14400,
            "max": [
                7963
            ],
            "min": [
                0
            ],
            "type": "SCALAR"
        },
        {
            "name": "stage2a_GEOShape#0/vertices/NORMAL",
            "bufferView": 1,
            "byteOffset": 0,
            "componentType": 5126,
            "count": 7964,
            "max": [
                1.0,
                1.0,
                1.0
            ],
            "min": [
                -1.0,
                -1.0,
                -1.0
            ],
            "type": "VEC3"
        },
        {
            "name": "stage2a_GEOShape#0/vertices/POSITION",
            "bufferView": 1,
            "byteOffset": 95568,
            "componentType": 5126,
            "count": 7964,
            "max": [
                6935.0830078125,
                4191.701171875,
                10495.55078125
            ],
            "min": [
                -7358.60205078125,
                -3060.44384765625,
                -10504.576171875
            ],
            "type": "VEC3"
        },
        {
            "name": "stage2a_GEOShape#0/vertices/TANGENT",
            "bufferView": 2,
            "byteOffset": 0,
            "componentType": 5126,
            "count": 7964,
            "max": [
                1.0,
                1.0,
                1.0,
                1.0
            ],
            "min": [
                -1.0,
                -1.0,
                -1.0,
                -1.0
            ],
            "type": "VEC4"
        },
        {
            "name": "stage2a_GEOShape#0/vertices/TEXCOORD_0",
            "bufferView": 3,
            "byteOffset": 0,
            "componentType": 5126,
            "count": 7964,
            "max": [
                0.9305123686790466,
                0.8817411065101624
            ],
            "min": [
                0.006537615787237883,
                0.08418822288513184
            ],
            "type": "VEC2"
        },
        {
            "name": "stage2a_GEOShape#1/indices",
            "bufferView": 0,
            "byteOffset": 28800,
            "componentType": 5123,
            "count": 264,
            "max": [
                131
            ],
            "min": [
                0
            ],
            "type": "SCALAR"
        },
        {
            "name": "stage2a_GEOShape#1/vertices/NORMAL",
            "bufferView": 1,
            "byteOffset": 191136,
            "componentType": 5126,
            "count": 132,
            "max": [
                0.9999987483024596,
                0.41025203466415408,
                0.03675354272127152
            ],
            "min": [
                -0.999981701374054,
                -0.5486859679222107,
                -0.04491228237748146
            ],
            "type": "VEC3"
        },
        {
            "name": "stage2a_GEOShape#1/vertices/POSITION",
            "bufferView": 1,
            "byteOffset": 192720,
            "componentType": 5126,
            "count": 132,
            "max": [
                425.4970703125,
                -1348.25927734375,
                10486.39453125
            ],
            "min": [
                -472.8623046875,
                -1996.19091796875,
                -10340.529296875
            ],
            "type": "VEC3"
        },
        {
            "name": "stage2a_GEOShape#1/vertices/TANGENT",
            "bufferView": 2,
            "byteOffset": 127424,
            "componentType": 5126,
            "count": 132,
            "max": [
                0.0268046110868454,
                0.07683038711547852,
                0.999956488609314,
                1.0
            ],
            "min": [
                -0.04451312497258186,
                -0.04581664502620697,
                -0.9999951720237732,
                1.0
            ],
            "type": "VEC4"
        },
        {
            "name": "stage2a_GEOShape#1/vertices/TEXCOORD_0",
            "bufferView": 3,
            "byteOffset": 63712,
            "componentType": 5126,
            "count": 132,
            "max": [
                0.49872344732284548,
                0.4987233877182007
            ],
            "min": [
                0.0027388930320739748,
                0.0027388930320739748
            ],
            "type": "VEC2"
        },
        {
            "name": "stage2a_GEOShape#1/vertices/TEXCOORD_1",
            "bufferView": 3,
            "byteOffset": 64768,
            "componentType": 5126,
            "count": 132,
            "max": [
                1.0,
                1.0
            ],
            "min": [
                0.0,
                0.0
            ],
            "type": "VEC2"
        }
    ],
    "bufferViews": [
        {
            "name": "stage2a/data/indices-2",
            "buffer": 0,
            "byteOffset": 389664,
            "byteLength": 29328,
            "target": 34963
        },
        {
            "name": "stage2a/data/vertices-12",
            "buffer": 0,
            "byteOffset": 129536,
            "byteLength": 194304,
            "byteStride": 12,
            "target": 34962
        },
        {
            "name": "stage2a/data/vertices-16",
            "buffer": 0,
            "byteOffset": 0,
            "byteLength": 129536,
            "byteStride": 16,
            "target": 34962
        },
        {
            "name": "stage2a/data/vertices-8",
            "buffer": 0,
            "byteOffset": 323840,
            "byteLength": 65824,
            "byteStride": 8,
            "target": 34962
        }
    ],
    "buffers": [
        {
            "name": "stage2a/data",
            "byteLength": 418992,
            "uri": "stage2a0.bin"
        }
    ]
}
