{
    "asset": {
        "copyright": "(C)2023 sprou",
        "generator": "maya2glTF v1.4.0 3d7ba8eaf03e",
        "version": "2.0"
    },
    "scenes": [
        {
            "nodes": [
                0
            ]
        }
    ],
    "scene": 0,
    "nodes": [
        {
            "name": "stg2_B_GEO",
            "children": [
                1
            ],
            "translation": [
                -9.4805908203125,
                907.5894775390624,
                -6.5166015625
            ]
        },
        {
            "name": "stg2_B_GEO:PIV",
            "mesh": 0,
            "translation": [
                9.4805908203125,
                -907.5894775390624,
                6.5166015625
            ]
        }
    ],
    "meshes": [
        {
            "name": "stg2_B_GEOShape",
            "extras": {
                "targetNames": []
            },
            "primitives": [
                {
                    "attributes": {
                        "NORMAL": 1,
                        "POSITION": 2,
                        "TANGENT": 3,
                        "TEXCOORD_0": 4
                    },
                    "indices": 0,
                    "mode": 4,
                    "material": 0
                },
                {
                    "attributes": {
                        "NORMAL": 6,
                        "POSITION": 7,
                        "TANGENT": 8,
                        "TEXCOORD_0": 9
                    },
                    "indices": 5,
                    "mode": 4,
                    "material": 1
                },
                {
                    "attributes": {
                        "NORMAL": 11,
                        "POSITION": 12,
                        "TANGENT": 13,
                        "TEXCOORD_0": 14
                    },
                    "indices": 10,
                    "mode": 4,
                    "material": 2
                },
                {
                    "attributes": {
                        "NORMAL": 16,
                        "POSITION": 17,
                        "TANGENT": 18,
                        "TEXCOORD_0": 19
                    },
                    "indices": 15,
                    "mode": 4,
                    "material": 3
                },
                {
                    "attributes": {
                        "NORMAL": 21,
                        "POSITION": 22
                    },
                    "indices": 20,
                    "mode": 4,
                    "material": 1
                }
            ]
        }
    ],
    "materials": [
        {
            "name": "stg2_prop1",
            "pbrMetallicRoughness": {
                "baseColorFactor": [
                    0.800000011920929,
                    0.800000011920929,
                    0.800000011920929,
                    1.0
                ],
                "baseColorTexture": {
                    "index": 0
                },
                "metallicFactor": 0.0,
                "roughnessFactor": 1.0
            }
        },
        {
            "name": "crystal_MAT",
            "pbrMetallicRoughness": {
                "baseColorFactor": [
                    0.800000011920929,
                    0.800000011920929,
                    0.800000011920929,
                    1.0
                ],
                "baseColorTexture": {
                    "index": 1
                },
                "metallicFactor": 0.0,
                "roughnessFactor": 1.0
            }
        },
        {
            "name": "stg2_land",
            "pbrMetallicRoughness": {
                "baseColorFactor": [
                    0.800000011920929,
                    0.800000011920929,
                    0.800000011920929,
                    1.0
                ],
                "baseColorTexture": {
                    "index": 2
                },
                "metallicFactor": 0.0,
                "roughnessFactor": 1.0
            }
        },
        {
            "name": "chickenwing_MAT",
            "pbrMetallicRoughness": {
                "baseColorFactor": [
                    0.800000011920929,
                    0.800000011920929,
                    0.800000011920929,
                    1.0
                ],
                "baseColorTexture": {
                    "index": 3
                },
                "metallicFactor": 0.0,
                "roughnessFactor": 1.0
            }
        }
    ],
    "textures": [
        {
            "sampler": 0,
            "source": 0
        },
        {
            "sampler": 0,
            "source": 1
        },
        {
            "sampler": 0,
            "source": 2
        },
        {
            "sampler": 0,
            "source": 3
        }
    ],
    "images": [
        {
            "uri": "stg2_prop1_colour.png"
        },
        {
            "uri": "stg2_crystals_colour.png"
        },
        {
            "uri": "stg2_land1_colour.png"
        },
        {
            "uri": "stg2_nasilemak_color.png"
        }
    ],
    "samplers": [
        {
            "magFilter": 9729,
            "minFilter": 9987,
            "wrapS": 10497,
            "wrapT": 10497
        }
    ],
    "accessors": [
        {
            "name": "stg2_B_GEOShape#0/indices",
            "bufferView": 0,
            "byteOffset": 0,
            "componentType": 5123,
            "count": 10356,
            "max": [
                2964
            ],
            "min": [
                0
            ],
            "type": "SCALAR"
        },
        {
            "name": "stg2_B_GEOShape#0/vertices/NORMAL",
            "bufferView": 1,
            "byteOffset": 0,
            "componentType": 5126,
            "count": 2965,
            "max": [
                0.9999915957450868,
                0.9986737966537476,
                0.9999594688415529
            ],
            "min": [
                -0.9999914765357972,
                -0.9983961582183838,
                -0.9999998807907105
            ],
            "type": "VEC3"
        },
        {
            "name": "stg2_B_GEOShape#0/vertices/POSITION",
            "bufferView": 1,
            "byteOffset": 35580,
            "componentType": 5126,
            "count": 2965,
            "max": [
                1548.5301513671876,
                2442.943115234375,
                9860.40234375
            ],
            "min": [
                -1588.5106201171876,
                -615.9243774414063,
                -9341.3134765625
            ],
            "type": "VEC3"
        },
        {
            "name": "stg2_B_GEOShape#0/vertices/TANGENT",
            "bufferView": 2,
            "byteOffset": 0,
            "componentType": 5126,
            "count": 2965,
            "max": [
                0.99970543384552,
                0.9999884963035584,
                0.9998465180397034,
                1.0
            ],
            "min": [
                -0.9999839663505554,
                -0.9990277290344238,
                -0.9996612071990968,
                1.0
            ],
            "type": "VEC4"
        },
        {
            "name": "stg2_B_GEOShape#0/vertices/TEXCOORD_0",
            "bufferView": 3,
            "byteOffset": 0,
            "componentType": 5126,
            "count": 2965,
            "max": [
                0.9938833117485046,
                0.9951509833335877
            ],
            "min": [
                0.001972436904907227,
                0.13234275579452516
            ],
            "type": "VEC2"
        },
        {
            "name": "stg2_B_GEOShape#1/indices",
            "bufferView": 0,
            "byteOffset": 20712,
            "componentType": 5123,
            "count": 4605,
            "max": [
                3500
            ],
            "min": [
                0
            ],
            "type": "SCALAR"
        },
        {
            "name": "stg2_B_GEOShape#1/vertices/NORMAL",
            "bufferView": 1,
            "byteOffset": 71160,
            "componentType": 5126,
            "count": 3501,
            "max": [
                0.9861018657684326,
                0.9967305660247804,
                1.0
            ],
            "min": [
                -0.9962025284767152,
                -0.9714921712875366,
                -0.9976429343223572
            ],
            "type": "VEC3"
        },
        {
            "name": "stg2_B_GEOShape#1/vertices/POSITION",
            "bufferView": 1,
            "byteOffset": 113172,
            "componentType": 5126,
            "count": 3501,
            "max": [
                1880.9876708984376,
                2481.753662109375,
                6539.513671875
            ],
            "min": [
                -2012.721923828125,
                -410.7445983886719,
                -10379.5380859375
            ],
            "type": "VEC3"
        },
        {
            "name": "stg2_B_GEOShape#1/vertices/TANGENT",
            "bufferView": 2,
            "byteOffset": 47440,
            "componentType": 5126,
            "count": 3501,
            "max": [
                0.9992243647575378,
                0.9852373600006104,
                0.9981504678726196,
                1.0
            ],
            "min": [
                -0.9996811151504516,
                -0.9973110556602478,
                -0.9999288320541382,
                -1.0
            ],
            "type": "VEC4"
        },
        {
            "name": "stg2_B_GEOShape#1/vertices/TEXCOORD_0",
            "bufferView": 3,
            "byteOffset": 23720,
            "componentType": 5126,
            "count": 3501,
            "max": [
                0.9854371547698976,
                0.9976298809051514
            ],
            "min": [
                0.0,
                0.006888329982757568
            ],
            "type": "VEC2"
        },
        {
            "name": "stg2_B_GEOShape#2/indices",
            "bufferView": 0,
            "byteOffset": 29922,
            "componentType": 5123,
            "count": 5082,
            "max": [
                2025
            ],
            "min": [
                0
            ],
            "type": "SCALAR"
        },
        {
            "name": "stg2_B_GEOShape#2/vertices/NORMAL",
            "bufferView": 1,
            "byteOffset": 155184,
            "componentType": 5126,
            "count": 2026,
            "max": [
                1.0,
                1.0,
                0.8827877640724182
            ],
            "min": [
                -1.0,
                -1.0,
                -0.8827878832817078
            ],
            "type": "VEC3"
        },
        {
            "name": "stg2_B_GEOShape#2/vertices/POSITION",
            "bufferView": 1,
            "byteOffset": 179496,
            "componentType": 5126,
            "count": 2026,
            "max": [
                2087.36669921875,
                2114.976318359375,
                10540.798828125
            ],
            "min": [
                -2106.327880859375,
                -666.57470703125,
                -10553.83203125
            ],
            "type": "VEC3"
        },
        {
            "name": "stg2_B_GEOShape#2/vertices/TANGENT",
            "bufferView": 2,
            "byteOffset": 103456,
            "componentType": 5126,
            "count": 2026,
            "max": [
                0.9999882578849793,
                1.0,
                1.0,
                1.0
            ],
            "min": [
                -1.0,
                -1.0,
                -1.0,
                -1.0
            ],
            "type": "VEC4"
        },
        {
            "name": "stg2_B_GEOShape#2/vertices/TEXCOORD_0",
            "bufferView": 3,
            "byteOffset": 51728,
            "componentType": 5126,
            "count": 2026,
            "max": [
                0.998283624649048,
                0.996263325214386
            ],
            "min": [
                0.00417819619178772,
                0.002114058006554842
            ],
            "type": "VEC2"
        },
        {
            "name": "stg2_B_GEOShape#3/indices",
            "bufferView": 0,
            "byteOffset": 40086,
            "componentType": 5123,
            "count": 9216,
            "max": [
                1739
            ],
            "min": [
                0
            ],
            "type": "SCALAR"
        },
        {
            "name": "stg2_B_GEOShape#3/vertices/NORMAL",
            "bufferView": 1,
            "byteOffset": 203808,
            "componentType": 5126,
            "count": 1740,
            "max": [
                0.99541974067688,
                0.9999158382415772,
                0.9933562874794006
            ],
            "min": [
                -0.9960041642189026,
                -0.9971563220024108,
                -0.9939411282539368
            ],
            "type": "VEC3"
        },
        {
            "name": "stg2_B_GEOShape#3/vertices/POSITION",
            "bufferView": 1,
            "byteOffset": 224688,
            "componentType": 5126,
            "count": 1740,
            "max": [
                1237.431884765625,
                -71.24760437011719,
                9871.9375
            ],
            "min": [
                -1287.9112548828126,
                -315.46966552734377,
                -2908.1240234375
            ],
            "type": "VEC3"
        },
        {
            "name": "stg2_B_GEOShape#3/vertices/TANGENT",
            "bufferView": 2,
            "byteOffset": 135872,
            "componentType": 5126,
            "count": 1740,
            "max": [
                0.992374062538147,
                0.9996957182884216,
                0.9995929598808288,
                1.0
            ],
            "min": [
                -0.9999188780784608,
                -0.999729096889496,
                -0.9018239378929138,
                -1.0
            ],
            "type": "VEC4"
        },
        {
            "name": "stg2_B_GEOShape#3/vertices/TEXCOORD_0",
            "bufferView": 3,
            "byteOffset": 67936,
            "componentType": 5126,
            "count": 1740,
            "max": [
                0.40613603591918948,
                0.9161043167114258
            ],
            "min": [
                0.0027219350449740888,
                0.6511014103889465
            ],
            "type": "VEC2"
        },
        {
            "name": "stg2_B_GEOShape#4/indices",
            "bufferView": 0,
            "byteOffset": 58518,
            "componentType": 5123,
            "count": 648,
            "max": [
                499
            ],
            "min": [
                0
            ],
            "type": "SCALAR"
        },
        {
            "name": "stg2_B_GEOShape#4/vertices/NORMAL",
            "bufferView": 1,
            "byteOffset": 245568,
            "componentType": 5126,
            "count": 500,
            "max": [
                0.995517671108246,
                0.9827781915664672,
                0.9926839470863342
            ],
            "min": [
                -0.9955185055732728,
                -0.9695773124694824,
                -0.901633322238922
            ],
            "type": "VEC3"
        },
        {
            "name": "stg2_B_GEOShape#4/vertices/POSITION",
            "bufferView": 1,
            "byteOffset": 251568,
            "componentType": 5126,
            "count": 500,
            "max": [
                1834.0673828125,
                1341.703369140625,
                -6094.962890625
            ],
            "min": [
                -1834.0673828125,
                829.10791015625,
                -6578.482421875
            ],
            "type": "VEC3"
        }
    ],
    "bufferViews": [
        {
            "name": "stg2_B/data/indices-2",
            "buffer": 0,
            "byteOffset": 503136,
            "byteLength": 59814,
            "target": 34963
        },
        {
            "name": "stg2_B/data/vertices-12",
            "buffer": 0,
            "byteOffset": 163712,
            "byteLength": 257568,
            "byteStride": 12,
            "target": 34962
        },
        {
            "name": "stg2_B/data/vertices-16",
            "buffer": 0,
            "byteOffset": 0,
            "byteLength": 163712,
            "byteStride": 16,
            "target": 34962
        },
        {
            "name": "stg2_B/data/vertices-8",
            "buffer": 0,
            "byteOffset": 421280,
            "byteLength": 81856,
            "byteStride": 8,
            "target": 34962
        }
    ],
    "buffers": [
        {
            "name": "stg2_B/data",
            "byteLength": 562950,
            "uri": "stg2_B0.bin"
        }
    ]
}
