{
    "asset": {
        "copyright": "(C)2023 sprou",
        "generator": "maya2glTF v1.4.0 3d7ba8eaf03e",
        "version": "2.0"
    },
    "scenes": [
        {
            "nodes": [
                0
            ]
        }
    ],
    "scene": 0,
    "nodes": [
        {
            "name": "stg2_A_GEO",
            "children": [
                1
            ],
            "translation": [
                -9.4805908203125,
                723.5144653320313,
                -6.5166015625
            ]
        },
        {
            "name": "stg2_A_GEO:PIV",
            "mesh": 0,
            "translation": [
                9.4805908203125,
                -723.5144653320313,
                6.5166015625
            ]
        }
    ],
    "meshes": [
        {
            "name": "stg2_A_GEOShape",
            "extras": {
                "targetNames": []
            },
            "primitives": [
                {
                    "attributes": {
                        "NORMAL": 1,
                        "POSITION": 2,
                        "TANGENT": 3,
                        "TEXCOORD_0": 4
                    },
                    "indices": 0,
                    "mode": 4,
                    "material": 0
                },
                {
                    "attributes": {
                        "NORMAL": 6,
                        "POSITION": 7,
                        "TANGENT": 8,
                        "TEXCOORD_0": 9
                    },
                    "indices": 5,
                    "mode": 4,
                    "material": 1
                },
                {
                    "attributes": {
                        "NORMAL": 11,
                        "POSITION": 12,
                        "TANGENT": 13,
                        "TEXCOORD_0": 14
                    },
                    "indices": 10,
                    "mode": 4,
                    "material": 2
                },
                {
                    "attributes": {
                        "NORMAL": 16,
                        "POSITION": 17,
                        "TANGENT": 18,
                        "TEXCOORD_0": 19
                    },
                    "indices": 15,
                    "mode": 4,
                    "material": 3
                }
            ]
        }
    ],
    "materials": [
        {
            "name": "stg2_prop1",
            "pbrMetallicRoughness": {
                "baseColorFactor": [
                    0.800000011920929,
                    0.800000011920929,
                    0.800000011920929,
                    1.0
                ],
                "baseColorTexture": {
                    "index": 0
                },
                "metallicFactor": 0.0,
                "roughnessFactor": 1.0
            }
        },
        {
            "name": "stg2_land",
            "pbrMetallicRoughness": {
                "baseColorFactor": [
                    0.800000011920929,
                    0.800000011920929,
                    0.800000011920929,
                    1.0
                ],
                "baseColorTexture": {
                    "index": 1
                },
                "metallicFactor": 0.0,
                "roughnessFactor": 1.0
            }
        },
        {
            "name": "crystal_MAT",
            "pbrMetallicRoughness": {
                "baseColorFactor": [
                    0.800000011920929,
                    0.800000011920929,
                    0.800000011920929,
                    1.0
                ],
                "baseColorTexture": {
                    "index": 2
                },
                "metallicFactor": 0.0,
                "roughnessFactor": 1.0
            }
        },
        {
            "name": "chickenwing_MAT",
            "pbrMetallicRoughness": {
                "baseColorFactor": [
                    0.800000011920929,
                    0.800000011920929,
                    0.800000011920929,
                    1.0
                ],
                "baseColorTexture": {
                    "index": 3
                },
                "metallicFactor": 0.0,
                "roughnessFactor": 1.0
            }
        }
    ],
    "textures": [
        {
            "sampler": 0,
            "source": 0
        },
        {
            "sampler": 0,
            "source": 1
        },
        {
            "sampler": 0,
            "source": 2
        },
        {
            "sampler": 0,
            "source": 3
        }
    ],
    "images": [
        {
            "uri": "stg2_prop1_colour.png"
        },
        {
            "uri": "stg2_land1_colour.png"
        },
        {
            "uri": "stg2_crystals_colour.png"
        },
        {
            "uri": "stg2_nasilemak_color.png"
        }
    ],
    "samplers": [
        {
            "magFilter": 9729,
            "minFilter": 9987,
            "wrapS": 10497,
            "wrapT": 10497
        }
    ],
    "accessors": [
        {
            "name": "stg2_A_GEOShape#0/indices",
            "bufferView": 0,
            "byteOffset": 0,
            "componentType": 5123,
            "count": 13950,
            "max": [
                4164
            ],
            "min": [
                0
            ],
            "type": "SCALAR"
        },
        {
            "name": "stg2_A_GEOShape#0/vertices/NORMAL",
            "bufferView": 1,
            "byteOffset": 0,
            "componentType": 5126,
            "count": 4165,
            "max": [
                0.9996158480644226,
                0.9999969601631165,
                0.9999836087226868
            ],
            "min": [
                -0.9991830587387084,
                -0.999947726726532,
                -0.9996567964553832
            ],
            "type": "VEC3"
        },
        {
            "name": "stg2_A_GEOShape#0/vertices/POSITION",
            "bufferView": 1,
            "byteOffset": 49980,
            "componentType": 5126,
            "count": 4165,
            "max": [
                1625.0029296875,
                2307.14892578125,
                8555.7001953125
            ],
            "min": [
                -1610.9486083984376,
                -860.1199951171875,
                -6614.74755859375
            ],
            "type": "VEC3"
        },
        {
            "name": "stg2_A_GEOShape#0/vertices/TANGENT",
            "bufferView": 2,
            "byteOffset": 0,
            "componentType": 5126,
            "count": 4165,
            "max": [
                0.999835968017578,
                0.9998604655265808,
                0.9993860721588136,
                1.0
            ],
            "min": [
                -0.9996906518936156,
                -0.999455988407135,
                -0.9997777938842772,
                -1.0
            ],
            "type": "VEC4"
        },
        {
            "name": "stg2_A_GEOShape#0/vertices/TEXCOORD_0",
            "bufferView": 3,
            "byteOffset": 0,
            "componentType": 5126,
            "count": 4165,
            "max": [
                0.9938833117485046,
                0.9951509833335877
            ],
            "min": [
                0.001972436904907227,
                0.13234275579452516
            ],
            "type": "VEC2"
        },
        {
            "name": "stg2_A_GEOShape#1/indices",
            "bufferView": 0,
            "byteOffset": 27900,
            "componentType": 5123,
            "count": 5184,
            "max": [
                2079
            ],
            "min": [
                0
            ],
            "type": "SCALAR"
        },
        {
            "name": "stg2_A_GEOShape#1/vertices/NORMAL",
            "bufferView": 1,
            "byteOffset": 99960,
            "componentType": 5126,
            "count": 2080,
            "max": [
                1.0,
                1.0,
                0.8827877640724182
            ],
            "min": [
                -1.0,
                -1.0,
                -0.8827878832817078
            ],
            "type": "VEC3"
        },
        {
            "name": "stg2_A_GEOShape#1/vertices/POSITION",
            "bufferView": 1,
            "byteOffset": 124920,
            "componentType": 5126,
            "count": 2080,
            "max": [
                2087.36669921875,
                2114.976318359375,
                10540.798828125
            ],
            "min": [
                -2106.327880859375,
                -666.57470703125,
                -10553.83203125
            ],
            "type": "VEC3"
        },
        {
            "name": "stg2_A_GEOShape#1/vertices/TANGENT",
            "bufferView": 2,
            "byteOffset": 66640,
            "componentType": 5126,
            "count": 2080,
            "max": [
                0.9999882578849793,
                1.0,
                1.0,
                1.0
            ],
            "min": [
                -1.0,
                -1.0,
                -1.0,
                -1.0
            ],
            "type": "VEC4"
        },
        {
            "name": "stg2_A_GEOShape#1/vertices/TEXCOORD_0",
            "bufferView": 3,
            "byteOffset": 33320,
            "componentType": 5126,
            "count": 2080,
            "max": [
                0.998283624649048,
                0.996263325214386
            ],
            "min": [
                0.00417819619178772,
                0.002114058006554842
            ],
            "type": "VEC2"
        },
        {
            "name": "stg2_A_GEOShape#2/indices",
            "bufferView": 0,
            "byteOffset": 38268,
            "componentType": 5123,
            "count": 4368,
            "max": [
                3339
            ],
            "min": [
                0
            ],
            "type": "SCALAR"
        },
        {
            "name": "stg2_A_GEOShape#2/vertices/NORMAL",
            "bufferView": 1,
            "byteOffset": 149880,
            "componentType": 5126,
            "count": 3340,
            "max": [
                0.9989131689071656,
                1.0,
                1.0
            ],
            "min": [
                -0.9899194836616516,
                -0.9951709508895874,
                -0.9995827078819276
            ],
            "type": "VEC3"
        },
        {
            "name": "stg2_A_GEOShape#2/vertices/POSITION",
            "bufferView": 1,
            "byteOffset": 189960,
            "componentType": 5126,
            "count": 3340,
            "max": [
                1832.358642578125,
                2115.79150390625,
                6603.18505859375
            ],
            "min": [
                -1711.766357421875,
                -435.0410461425781,
                -8576.9375
            ],
            "type": "VEC3"
        },
        {
            "name": "stg2_A_GEOShape#2/vertices/TANGENT",
            "bufferView": 2,
            "byteOffset": 99920,
            "componentType": 5126,
            "count": 3340,
            "max": [
                0.9997589588165284,
                1.0,
                0.999932825565338,
                1.0
            ],
            "min": [
                -0.9967459440231324,
                -1.0,
                -0.994569718837738,
                1.0
            ],
            "type": "VEC4"
        },
        {
            "name": "stg2_A_GEOShape#2/vertices/TEXCOORD_0",
            "bufferView": 3,
            "byteOffset": 49960,
            "componentType": 5126,
            "count": 3340,
            "max": [
                0.9999560117721558,
                0.9981020092964172
            ],
            "min": [
                0.0,
                0.00401198910549283
            ],
            "type": "VEC2"
        },
        {
            "name": "stg2_A_GEOShape#3/indices",
            "bufferView": 0,
            "byteOffset": 47004,
            "componentType": 5123,
            "count": 9216,
            "max": [
                1739
            ],
            "min": [
                0
            ],
            "type": "SCALAR"
        },
        {
            "name": "stg2_A_GEOShape#3/vertices/NORMAL",
            "bufferView": 1,
            "byteOffset": 230040,
            "componentType": 5126,
            "count": 1740,
            "max": [
                0.9990367293357848,
                0.9985699653625488,
                0.9999819993972778
            ],
            "min": [
                -0.9976720213890076,
                -0.9978657960891724,
                -0.9994954466819764
            ],
            "type": "VEC3"
        },
        {
            "name": "stg2_A_GEOShape#3/vertices/POSITION",
            "bufferView": 1,
            "byteOffset": 250920,
            "componentType": 5126,
            "count": 1740,
            "max": [
                1542.02978515625,
                10.9842529296875,
                9000.716796875
            ],
            "min": [
                -1401.5458984375,
                -450.5738525390625,
                -2289.0791015625
            ],
            "type": "VEC3"
        },
        {
            "name": "stg2_A_GEOShape#3/vertices/TANGENT",
            "bufferView": 2,
            "byteOffset": 153360,
            "componentType": 5126,
            "count": 1740,
            "max": [
                0.9107736349105836,
                0.9883805513381958,
                0.9344801306724548,
                1.0
            ],
            "min": [
                -0.9999180436134338,
                -0.9742552638053894,
                -0.9990067481994628,
                -1.0
            ],
            "type": "VEC4"
        },
        {
            "name": "stg2_A_GEOShape#3/vertices/TEXCOORD_0",
            "bufferView": 3,
            "byteOffset": 76680,
            "componentType": 5126,
            "count": 1740,
            "max": [
                0.40613603591918948,
                0.9161043167114258
            ],
            "min": [
                0.0027219350449740888,
                0.6511014103889465
            ],
            "type": "VEC2"
        }
    ],
    "bufferViews": [
        {
            "name": "stg2_A/data/indices-2",
            "buffer": 0,
            "byteOffset": 543600,
            "byteLength": 65436,
            "target": 34963
        },
        {
            "name": "stg2_A/data/vertices-12",
            "buffer": 0,
            "byteOffset": 181200,
            "byteLength": 271800,
            "byteStride": 12,
            "target": 34962
        },
        {
            "name": "stg2_A/data/vertices-16",
            "buffer": 0,
            "byteOffset": 0,
            "byteLength": 181200,
            "byteStride": 16,
            "target": 34962
        },
        {
            "name": "stg2_A/data/vertices-8",
            "buffer": 0,
            "byteOffset": 453000,
            "byteLength": 90600,
            "byteStride": 8,
            "target": 34962
        }
    ],
    "buffers": [
        {
            "name": "stg2_A/data",
            "byteLength": 609036,
            "uri": "stg2_A0.bin"
        }
    ]
}
