{
    "asset": {
        "copyright": "(C)2023 sprou",
        "generator": "maya2glTF v1.4.0 3d7ba8eaf03e",
        "version": "2.0"
    },
    "scenes": [
        {
            "nodes": [
                0
            ]
        }
    ],
    "scene": 0,
    "nodes": [
        {
            "name": "stg2_B_GEO",
            "children": [
                1
            ],
            "translation": [
                -9.4805908203125,
                0.000014784000086365268,
                0.0
            ]
        },
        {
            "name": "stg2_B_GEO:PIV",
            "mesh": 0,
            "translation": [
                9.4805908203125,
                -0.000014784000086365268,
                0.0
            ]
        }
    ],
    "meshes": [
        {
            "name": "stg2_B_GEOShape",
            "extras": {
                "targetNames": []
            },
            "primitives": [
                {
                    "attributes": {
                        "NORMAL": 1,
                        "POSITION": 2,
                        "TANGENT": 3,
                        "TEXCOORD_0": 4
                    },
                    "indices": 0,
                    "mode": 4,
                    "material": 0
                },
                {
                    "attributes": {
                        "NORMAL": 6,
                        "POSITION": 7,
                        "TANGENT": 8,
                        "TEXCOORD_0": 9
                    },
                    "indices": 5,
                    "mode": 4,
                    "material": 1
                },
                {
                    "attributes": {
                        "NORMAL": 11,
                        "POSITION": 12,
                        "TANGENT": 13,
                        "TEXCOORD_0": 14,
                        "TEXCOORD_1": 15
                    },
                    "indices": 10,
                    "mode": 4,
                    "material": 1
                },
                {
                    "attributes": {
                        "NORMAL": 17,
                        "POSITION": 18,
                        "TANGENT": 19,
                        "TEXCOORD_1": 20
                    },
                    "indices": 16,
                    "mode": 4,
                    "material": 0
                },
                {
                    "attributes": {
                        "NORMAL": 22,
                        "POSITION": 23,
                        "TANGENT": 24,
                        "TEXCOORD_0": 25
                    },
                    "indices": 21,
                    "mode": 4,
                    "material": 2
                }
            ]
        }
    ],
    "materials": [
        {
            "name": "crystal_MAT",
            "pbrMetallicRoughness": {
                "baseColorFactor": [
                    0.800000011920929,
                    0.800000011920929,
                    0.800000011920929,
                    1.0
                ],
                "baseColorTexture": {
                    "index": 0
                },
                "metallicFactor": 0.0,
                "roughnessFactor": 1.0
            }
        },
        {
            "name": "stg2_land",
            "pbrMetallicRoughness": {
                "baseColorFactor": [
                    0.800000011920929,
                    0.800000011920929,
                    0.800000011920929,
                    1.0
                ],
                "baseColorTexture": {
                    "index": 1
                },
                "metallicFactor": 0.0,
                "roughnessFactor": 1.0
            }
        },
        {
            "name": "stg2_prop1",
            "pbrMetallicRoughness": {
                "baseColorFactor": [
                    0.800000011920929,
                    0.800000011920929,
                    0.800000011920929,
                    1.0
                ],
                "baseColorTexture": {
                    "index": 2
                },
                "metallicFactor": 0.0,
                "roughnessFactor": 1.0
            }
        }
    ],
    "textures": [
        {
            "sampler": 0,
            "source": 0
        },
        {
            "sampler": 0,
            "source": 1
        },
        {
            "sampler": 0,
            "source": 2
        }
    ],
    "images": [
        {
            "uri": "stg2_crystals_colour.png"
        },
        {
            "uri": "stg2_land1_colour.png"
        },
        {
            "uri": "stg2_prop1_colour.png"
        }
    ],
    "samplers": [
        {
            "magFilter": 9729,
            "minFilter": 9987,
            "wrapS": 10497,
            "wrapT": 10497
        }
    ],
    "accessors": [
        {
            "name": "stg2_B_GEOShape#0/indices",
            "bufferView": 0,
            "byteOffset": 0,
            "componentType": 5123,
            "count": 1719,
            "max": [
                1250
            ],
            "min": [
                0
            ],
            "type": "SCALAR"
        },
        {
            "name": "stg2_B_GEOShape#0/vertices/NORMAL",
            "bufferView": 1,
            "byteOffset": 0,
            "componentType": 5126,
            "count": 1251,
            "max": [
                0.9269660115242004,
                0.4573962390422821,
                1.0
            ],
            "min": [
                -0.98154479265213,
                -0.9342355728149414,
                0.028279896825551988
            ],
            "type": "VEC3"
        },
        {
            "name": "stg2_B_GEOShape#0/vertices/POSITION",
            "bufferView": 1,
            "byteOffset": 15012,
            "componentType": 5126,
            "count": 1251,
            "max": [
                1860.1533203125,
                2481.753662109375,
                6375.7451171875
            ],
            "min": [
                -2001.96435546875,
                1082.45263671875,
                -10285.0673828125
            ],
            "type": "VEC3"
        },
        {
            "name": "stg2_B_GEOShape#0/vertices/TANGENT",
            "bufferView": 2,
            "byteOffset": 0,
            "componentType": 5126,
            "count": 1251,
            "max": [
                0.9992243647575378,
                0.8359687924385071,
                0.9168131947517396,
                1.0
            ],
            "min": [
                -0.9720165729522704,
                -0.7975010871887207,
                -0.9291157722473145,
                -1.0
            ],
            "type": "VEC4"
        },
        {
            "name": "stg2_B_GEOShape#0/vertices/TEXCOORD_0",
            "bufferView": 3,
            "byteOffset": 0,
            "componentType": 5126,
            "count": 1251,
            "max": [
                0.9817484617233276,
                0.9951801896095276
            ],
            "min": [
                0.0,
                0.02291536331176758
            ],
            "type": "VEC2"
        },
        {
            "name": "stg2_B_GEOShape#1/indices",
            "bufferView": 0,
            "byteOffset": 3438,
            "componentType": 5123,
            "count": 5010,
            "max": [
                1998
            ],
            "min": [
                0
            ],
            "type": "SCALAR"
        },
        {
            "name": "stg2_B_GEOShape#1/vertices/NORMAL",
            "bufferView": 1,
            "byteOffset": 30024,
            "componentType": 5126,
            "count": 1999,
            "max": [
                1.0,
                1.0,
                0.8827877640724182
            ],
            "min": [
                -1.0,
                -1.0,
                -0.8827878832817078
            ],
            "type": "VEC3"
        },
        {
            "name": "stg2_B_GEOShape#1/vertices/POSITION",
            "bufferView": 1,
            "byteOffset": 54012,
            "componentType": 5126,
            "count": 1999,
            "max": [
                2087.36669921875,
                2114.976318359375,
                10509.728515625
            ],
            "min": [
                -2106.327880859375,
                -666.57470703125,
                -10509.728515625
            ],
            "type": "VEC3"
        },
        {
            "name": "stg2_B_GEOShape#1/vertices/TANGENT",
            "bufferView": 2,
            "byteOffset": 20016,
            "componentType": 5126,
            "count": 1999,
            "max": [
                0.9999882578849793,
                1.0,
                1.0,
                1.0
            ],
            "min": [
                -1.0,
                -1.0,
                -1.0,
                1.0
            ],
            "type": "VEC4"
        },
        {
            "name": "stg2_B_GEOShape#1/vertices/TEXCOORD_0",
            "bufferView": 3,
            "byteOffset": 10008,
            "componentType": 5126,
            "count": 1999,
            "max": [
                0.998283624649048,
                0.996263325214386
            ],
            "min": [
                0.00417819619178772,
                0.002114058006554842
            ],
            "type": "VEC2"
        },
        {
            "name": "stg2_B_GEOShape#2/indices",
            "bufferView": 0,
            "byteOffset": 13458,
            "componentType": 5123,
            "count": 72,
            "max": [
                47
            ],
            "min": [
                0
            ],
            "type": "SCALAR"
        },
        {
            "name": "stg2_B_GEOShape#2/vertices/NORMAL",
            "bufferView": 1,
            "byteOffset": 78000,
            "componentType": 5126,
            "count": 48,
            "max": [
                0.34335029125213625,
                0.999750316143036,
                0.07878419756889343
            ],
            "min": [
                -0.3967599868774414,
                0.9177135825157166,
                -0.045632630586624148
            ],
            "type": "VEC3"
        },
        {
            "name": "stg2_B_GEOShape#2/vertices/POSITION",
            "bufferView": 1,
            "byteOffset": 78576,
            "componentType": 5126,
            "count": 48,
            "max": [
                2087.3642578125,
                -177.15475463867188,
                10540.798828125
            ],
            "min": [
                -2106.327880859375,
                -312.3651123046875,
                -10553.83203125
            ],
            "type": "VEC3"
        },
        {
            "name": "stg2_B_GEOShape#2/vertices/TANGENT",
            "bufferView": 2,
            "byteOffset": 52000,
            "componentType": 5126,
            "count": 48,
            "max": [
                0.9972511529922484,
                0.08244150876998902,
                0.9997064471244812,
                1.0
            ],
            "min": [
                -0.9999869465827942,
                -1.0,
                -0.9999913573265076,
                -1.0
            ],
            "type": "VEC4"
        },
        {
            "name": "stg2_B_GEOShape#2/vertices/TEXCOORD_0",
            "bufferView": 3,
            "byteOffset": 26000,
            "componentType": 5126,
            "count": 48,
            "max": [
                0.998283624649048,
                0.6921213865280151
            ],
            "min": [
                0.8176140189170837,
                0.002383946906775236
            ],
            "type": "VEC2"
        },
        {
            "name": "stg2_B_GEOShape#2/vertices/TEXCOORD_1",
            "bufferView": 3,
            "byteOffset": 26384,
            "componentType": 5126,
            "count": 48,
            "max": [
                1.0,
                1.0
            ],
            "min": [
                0.0,
                0.0
            ],
            "type": "VEC2"
        },
        {
            "name": "stg2_B_GEOShape#3/indices",
            "bufferView": 0,
            "byteOffset": 13602,
            "componentType": 5123,
            "count": 3534,
            "max": [
                2749
            ],
            "min": [
                0
            ],
            "type": "SCALAR"
        },
        {
            "name": "stg2_B_GEOShape#3/vertices/NORMAL",
            "bufferView": 1,
            "byteOffset": 79152,
            "componentType": 5126,
            "count": 2750,
            "max": [
                0.995517671108246,
                0.9967305660247804,
                0.9982913732528688
            ],
            "min": [
                -0.9962025284767152,
                -0.9714921712875366,
                -0.9976429343223572
            ],
            "type": "VEC3"
        },
        {
            "name": "stg2_B_GEOShape#3/vertices/POSITION",
            "bufferView": 1,
            "byteOffset": 112152,
            "componentType": 5126,
            "count": 2750,
            "max": [
                1880.9876708984376,
                1772.075439453125,
                6539.513671875
            ],
            "min": [
                -2012.721923828125,
                -410.7445983886719,
                -10379.5380859375
            ],
            "type": "VEC3"
        },
        {
            "name": "stg2_B_GEOShape#3/vertices/TANGENT",
            "bufferView": 2,
            "byteOffset": 52768,
            "componentType": 5126,
            "count": 2750,
            "max": [
                0.994046151638031,
                0.9852373600006104,
                0.9981504678726196,
                1.0
            ],
            "min": [
                -0.9996811151504516,
                -0.9973110556602478,
                -0.9999288320541382,
                -1.0
            ],
            "type": "VEC4"
        },
        {
            "name": "stg2_B_GEOShape#3/vertices/TEXCOORD_1",
            "bufferView": 3,
            "byteOffset": 26768,
            "componentType": 5126,
            "count": 2750,
            "max": [
                0.9854371547698976,
                0.9976298809051514
            ],
            "min": [
                0.08921623229980469,
                0.006888329982757568
            ],
            "type": "VEC2"
        },
        {
            "name": "stg2_B_GEOShape#4/indices",
            "bufferView": 0,
            "byteOffset": 20670,
            "componentType": 5123,
            "count": 12948,
            "max": [
                3622
            ],
            "min": [
                0
            ],
            "type": "SCALAR"
        },
        {
            "name": "stg2_B_GEOShape#4/vertices/NORMAL",
            "bufferView": 1,
            "byteOffset": 145152,
            "componentType": 5126,
            "count": 3623,
            "max": [
                0.9999915957450868,
                0.9986737966537476,
                0.9999594688415529
            ],
            "min": [
                -0.9999914765357972,
                -0.9983961582183838,
                -0.9999998807907105
            ],
            "type": "VEC3"
        },
        {
            "name": "stg2_B_GEOShape#4/vertices/POSITION",
            "bufferView": 1,
            "byteOffset": 188628,
            "componentType": 5126,
            "count": 3623,
            "max": [
                1548.5301513671876,
                2442.943115234375,
                9895.9638671875
            ],
            "min": [
                -1588.5106201171876,
                -615.9243774414063,
                -9341.3134765625
            ],
            "type": "VEC3"
        },
        {
            "name": "stg2_B_GEOShape#4/vertices/TANGENT",
            "bufferView": 2,
            "byteOffset": 96768,
            "componentType": 5126,
            "count": 3623,
            "max": [
                0.99970543384552,
                0.9999884963035584,
                0.9998465180397034,
                1.0
            ],
            "min": [
                -0.9999839663505554,
                -0.999169945716858,
                -0.9996612071990968,
                1.0
            ],
            "type": "VEC4"
        },
        {
            "name": "stg2_B_GEOShape#4/vertices/TEXCOORD_0",
            "bufferView": 3,
            "byteOffset": 48768,
            "componentType": 5126,
            "count": 3623,
            "max": [
                0.9938833117485046,
                0.9951509833335877
            ],
            "min": [
                0.001972436904907227,
                0.005324184894561768
            ],
            "type": "VEC2"
        }
    ],
    "bufferViews": [
        {
            "name": "stg2_B/data/indices-2",
            "buffer": 0,
            "byteOffset": 464592,
            "byteLength": 46566,
            "target": 34963
        },
        {
            "name": "stg2_B/data/vertices-12",
            "buffer": 0,
            "byteOffset": 154736,
            "byteLength": 232104,
            "byteStride": 12,
            "target": 34962
        },
        {
            "name": "stg2_B/data/vertices-16",
            "buffer": 0,
            "byteOffset": 0,
            "byteLength": 154736,
            "byteStride": 16,
            "target": 34962
        },
        {
            "name": "stg2_B/data/vertices-8",
            "buffer": 0,
            "byteOffset": 386840,
            "byteLength": 77752,
            "byteStride": 8,
            "target": 34962
        }
    ],
    "buffers": [
        {
            "name": "stg2_B/data",
            "byteLength": 511158,
            "uri": "stg2_B0.bin"
        }
    ]
}
