{
    "asset": {
        "copyright": "(C)2023 sprou",
        "generator": "maya2glTF v1.4.0 3d7ba8eaf03e",
        "version": "2.0"
    },
    "scenes": [
        {
            "nodes": [
                0
            ]
        }
    ],
    "scene": 0,
    "nodes": [
        {
            "name": "stg2_A_GEO",
            "children": [
                1
            ],
            "translation": [
                -9.4805908203125,
                0.0,
                0.0
            ]
        },
        {
            "name": "stg2_A_GEO:PIV",
            "mesh": 0,
            "translation": [
                9.4805908203125,
                0.0,
                0.0
            ]
        }
    ],
    "meshes": [
        {
            "name": "stg2_A_GEOShape",
            "extras": {
                "targetNames": []
            },
            "primitives": [
                {
                    "attributes": {
                        "NORMAL": 1,
                        "POSITION": 2,
                        "TANGENT": 3,
                        "TEXCOORD_0": 4
                    },
                    "indices": 0,
                    "mode": 4,
                    "material": 0
                },
                {
                    "attributes": {
                        "NORMAL": 6,
                        "POSITION": 7,
                        "TANGENT": 8,
                        "TEXCOORD_0": 9
                    },
                    "indices": 5,
                    "mode": 4,
                    "material": 1
                },
                {
                    "attributes": {
                        "NORMAL": 11,
                        "POSITION": 12,
                        "TANGENT": 13,
                        "TEXCOORD_1": 14
                    },
                    "indices": 10,
                    "mode": 4,
                    "material": 2
                },
                {
                    "attributes": {
                        "NORMAL": 16,
                        "POSITION": 17,
                        "TANGENT": 18,
                        "TEXCOORD_0": 19
                    },
                    "indices": 15,
                    "mode": 4,
                    "material": 2
                },
                {
                    "attributes": {
                        "NORMAL": 21,
                        "POSITION": 22,
                        "TANGENT": 23,
                        "TEXCOORD_2": 24
                    },
                    "indices": 20,
                    "mode": 4,
                    "material": 2
                },
                {
                    "attributes": {
                        "COLOR_0": 26,
                        "NORMAL": 27,
                        "POSITION": 28,
                        "TANGENT": 29,
                        "TEXCOORD_2": 30
                    },
                    "indices": 25,
                    "mode": 4,
                    "material": 2
                },
                {
                    "attributes": {
                        "NORMAL": 32,
                        "POSITION": 33,
                        "TANGENT": 34,
                        "TEXCOORD_0": 35,
                        "TEXCOORD_1": 36
                    },
                    "indices": 31,
                    "mode": 4,
                    "material": 1
                }
            ]
        }
    ],
    "materials": [
        {
            "name": "stg2_prop1",
            "pbrMetallicRoughness": {
                "baseColorFactor": [
                    0.800000011920929,
                    0.800000011920929,
                    0.800000011920929,
                    1.0
                ],
                "baseColorTexture": {
                    "index": 0
                },
                "metallicFactor": 0.0,
                "roughnessFactor": 1.0
            }
        },
        {
            "name": "stg2_land",
            "pbrMetallicRoughness": {
                "baseColorFactor": [
                    0.800000011920929,
                    0.800000011920929,
                    0.800000011920929,
                    1.0
                ],
                "baseColorTexture": {
                    "index": 1
                },
                "metallicFactor": 0.0,
                "roughnessFactor": 1.0
            }
        },
        {
            "name": "crystal_MAT",
            "pbrMetallicRoughness": {
                "baseColorFactor": [
                    0.800000011920929,
                    0.800000011920929,
                    0.800000011920929,
                    1.0
                ],
                "baseColorTexture": {
                    "index": 2
                },
                "metallicFactor": 0.0,
                "roughnessFactor": 1.0
            }
        }
    ],
    "textures": [
        {
            "sampler": 0,
            "source": 0
        },
        {
            "sampler": 0,
            "source": 1
        },
        {
            "sampler": 0,
            "source": 2
        }
    ],
    "images": [
        {
            "uri": "stg2_prop1_colour.png"
        },
        {
            "uri": "stg2_land1_colour.png"
        },
        {
            "uri": "stg2_crystals_colour.png"
        }
    ],
    "samplers": [
        {
            "magFilter": 9729,
            "minFilter": 9987,
            "wrapS": 10497,
            "wrapT": 10497
        }
    ],
    "accessors": [
        {
            "name": "stg2_A_GEOShape#0/indices",
            "bufferView": 0,
            "byteOffset": 0,
            "componentType": 5123,
            "count": 17838,
            "max": [
                5151
            ],
            "min": [
                0
            ],
            "type": "SCALAR"
        },
        {
            "name": "stg2_A_GEOShape#0/vertices/NORMAL",
            "bufferView": 1,
            "byteOffset": 0,
            "componentType": 5126,
            "count": 5152,
            "max": [
                0.9996158480644226,
                0.9999969601631165,
                0.9999836087226868
            ],
            "min": [
                -0.9991830587387084,
                -0.999947726726532,
                -0.9996567964553832
            ],
            "type": "VEC3"
        },
        {
            "name": "stg2_A_GEOShape#0/vertices/POSITION",
            "bufferView": 1,
            "byteOffset": 61824,
            "componentType": 5126,
            "count": 5152,
            "max": [
                1625.0029296875,
                2307.14892578125,
                9654.9052734375
            ],
            "min": [
                -1610.9486083984376,
                -860.1199951171875,
                -6614.74755859375
            ],
            "type": "VEC3"
        },
        {
            "name": "stg2_A_GEOShape#0/vertices/TANGENT",
            "bufferView": 2,
            "byteOffset": 0,
            "componentType": 5126,
            "count": 5152,
            "max": [
                0.999835968017578,
                0.9998604655265808,
                0.9993860721588136,
                1.0
            ],
            "min": [
                -0.9996906518936156,
                -0.999455988407135,
                -0.9997777938842772,
                -1.0
            ],
            "type": "VEC4"
        },
        {
            "name": "stg2_A_GEOShape#0/vertices/TEXCOORD_0",
            "bufferView": 3,
            "byteOffset": 0,
            "componentType": 5126,
            "count": 5152,
            "max": [
                0.9938833117485046,
                0.9951509833335877
            ],
            "min": [
                0.001972436904907227,
                0.005324184894561768
            ],
            "type": "VEC2"
        },
        {
            "name": "stg2_A_GEOShape#1/indices",
            "bufferView": 0,
            "byteOffset": 35676,
            "componentType": 5123,
            "count": 5208,
            "max": [
                2106
            ],
            "min": [
                0
            ],
            "type": "SCALAR"
        },
        {
            "name": "stg2_A_GEOShape#1/vertices/NORMAL",
            "bufferView": 1,
            "byteOffset": 123648,
            "componentType": 5126,
            "count": 2107,
            "max": [
                1.0,
                1.0,
                0.8827877640724182
            ],
            "min": [
                -1.0,
                -1.0,
                -0.8827878832817078
            ],
            "type": "VEC3"
        },
        {
            "name": "stg2_A_GEOShape#1/vertices/POSITION",
            "bufferView": 1,
            "byteOffset": 148932,
            "componentType": 5126,
            "count": 2107,
            "max": [
                2087.36669921875,
                2114.976318359375,
                10509.728515625
            ],
            "min": [
                -2106.327880859375,
                -666.57470703125,
                -10509.728515625
            ],
            "type": "VEC3"
        },
        {
            "name": "stg2_A_GEOShape#1/vertices/TANGENT",
            "bufferView": 2,
            "byteOffset": 82432,
            "componentType": 5126,
            "count": 2107,
            "max": [
                0.9999882578849793,
                1.0,
                1.0,
                1.0
            ],
            "min": [
                -1.0,
                -1.0,
                -1.0,
                1.0
            ],
            "type": "VEC4"
        },
        {
            "name": "stg2_A_GEOShape#1/vertices/TEXCOORD_0",
            "bufferView": 3,
            "byteOffset": 41216,
            "componentType": 5126,
            "count": 2107,
            "max": [
                0.998283624649048,
                0.996263325214386
            ],
            "min": [
                0.00417819619178772,
                0.002114058006554842
            ],
            "type": "VEC2"
        },
        {
            "name": "stg2_A_GEOShape#2/indices",
            "bufferView": 0,
            "byteOffset": 46092,
            "componentType": 5123,
            "count": 2808,
            "max": [
                2179
            ],
            "min": [
                0
            ],
            "type": "SCALAR"
        },
        {
            "name": "stg2_A_GEOShape#2/vertices/NORMAL",
            "bufferView": 1,
            "byteOffset": 174216,
            "componentType": 5126,
            "count": 2180,
            "max": [
                0.9967795014381408,
                0.9963771104812622,
                0.9976849555969238
            ],
            "min": [
                -0.9899194836616516,
                -0.960150957107544,
                -0.9995827078819276
            ],
            "type": "VEC3"
        },
        {
            "name": "stg2_A_GEOShape#2/vertices/POSITION",
            "bufferView": 1,
            "byteOffset": 200376,
            "componentType": 5126,
            "count": 2180,
            "max": [
                1832.358642578125,
                466.4703674316406,
                6603.18505859375
            ],
            "min": [
                -1711.766357421875,
                -340.5235595703125,
                -6853.0927734375
            ],
            "type": "VEC3"
        },
        {
            "name": "stg2_A_GEOShape#2/vertices/TANGENT",
            "bufferView": 2,
            "byteOffset": 116144,
            "componentType": 5126,
            "count": 2180,
            "max": [
                0.9991201758384704,
                0.9998103976249696,
                0.999932825565338,
                1.0
            ],
            "min": [
                -0.9967459440231324,
                -0.9997358918190002,
                -0.994569718837738,
                1.0
            ],
            "type": "VEC4"
        },
        {
            "name": "stg2_A_GEOShape#2/vertices/TEXCOORD_1",
            "bufferView": 3,
            "byteOffset": 58072,
            "componentType": 5126,
            "count": 2180,
            "max": [
                0.9854371547698976,
                0.9976298809051514
            ],
            "min": [
                0.08921623229980469,
                0.006888329982757568
            ],
            "type": "VEC2"
        },
        {
            "name": "stg2_A_GEOShape#3/indices",
            "bufferView": 0,
            "byteOffset": 51708,
            "componentType": 5123,
            "count": 1560,
            "max": [
                1159
            ],
            "min": [
                0
            ],
            "type": "SCALAR"
        },
        {
            "name": "stg2_A_GEOShape#3/vertices/NORMAL",
            "bufferView": 1,
            "byteOffset": 226536,
            "componentType": 5126,
            "count": 1160,
            "max": [
                0.9989131689071656,
                1.0,
                1.0
            ],
            "min": [
                -0.9813545346260072,
                -0.9951709508895874,
                -0.9986720085144044
            ],
            "type": "VEC3"
        },
        {
            "name": "stg2_A_GEOShape#3/vertices/POSITION",
            "bufferView": 1,
            "byteOffset": 240456,
            "componentType": 5126,
            "count": 1160,
            "max": [
                1626.12353515625,
                2115.79150390625,
                6190.91064453125
            ],
            "min": [
                -1594.5107421875,
                -435.0410461425781,
                -8576.9375
            ],
            "type": "VEC3"
        },
        {
            "name": "stg2_A_GEOShape#3/vertices/TANGENT",
            "bufferView": 2,
            "byteOffset": 151024,
            "componentType": 5126,
            "count": 1160,
            "max": [
                0.9997589588165284,
                1.0,
                0.9812991619110109,
                1.0
            ],
            "min": [
                -0.9884403347969056,
                -1.0,
                -0.9944872260093688,
                1.0
            ],
            "type": "VEC4"
        },
        {
            "name": "stg2_A_GEOShape#3/vertices/TEXCOORD_0",
            "bufferView": 3,
            "byteOffset": 75512,
            "componentType": 5126,
            "count": 1160,
            "max": [
                0.9999560117721558,
                0.9981020092964172
            ],
            "min": [
                0.0,
                0.00401198910549283
            ],
            "type": "VEC2"
        },
        {
            "name": "stg2_A_GEOShape#4/indices",
            "bufferView": 0,
            "byteOffset": 54828,
            "componentType": 5123,
            "count": 4,
            "max": [
                2
            ],
            "min": [
                0
            ],
            "type": "SCALAR"
        },
        {
            "name": "stg2_A_GEOShape#4/vertices/NORMAL",
            "bufferView": 1,
            "byteOffset": 254376,
            "componentType": 5126,
            "count": 3,
            "max": [
                0.8494343161582947,
                0.4938674569129944,
                -0.42814338207244875
            ],
            "min": [
                0.016957374289631845,
                0.3084712028503418,
                -0.8693718314170837
            ],
            "type": "VEC3"
        },
        {
            "name": "stg2_A_GEOShape#4/vertices/POSITION",
            "bufferView": 1,
            "byteOffset": 254412,
            "componentType": 5126,
            "count": 3,
            "max": [
                1553.149169921875,
                141.32382202148438,
                -7594.74658203125
            ],
            "min": [
                1539.7822265625,
                94.3154754638672,
                -7621.19873046875
            ],
            "type": "VEC3"
        },
        {
            "name": "stg2_A_GEOShape#4/vertices/TANGENT",
            "bufferView": 2,
            "byteOffset": 169584,
            "componentType": 5126,
            "count": 3,
            "max": [
                -0.520619809627533,
                0.4466647803783417,
                0.08289402723312378,
                1.0
            ],
            "min": [
                -0.9802448749542236,
                0.1795787662267685,
                -0.7753461599349976,
                1.0
            ],
            "type": "VEC4"
        },
        {
            "name": "stg2_A_GEOShape#4/vertices/TEXCOORD_2",
            "bufferView": 3,
            "byteOffset": 84792,
            "componentType": 5126,
            "count": 3,
            "max": [
                0.658847987651825,
                0.8220070004463196
            ],
            "min": [
                0.6541856527328491,
                0.7991523742675781
            ],
            "type": "VEC2"
        },
        {
            "name": "stg2_A_GEOShape#5/indices",
            "bufferView": 0,
            "byteOffset": 54836,
            "componentType": 5123,
            "count": 398,
            "max": [
                288
            ],
            "min": [
                0
            ],
            "type": "SCALAR"
        },
        {
            "name": "stg2_A_GEOShape#5/vertices/COLOR_0",
            "bufferView": 2,
            "byteOffset": 169632,
            "componentType": 5126,
            "count": 289,
            "max": [
                1.0,
                1.0,
                1.0,
                1.0
            ],
            "min": [
                1.0,
                1.0,
                1.0,
                1.0
            ],
            "type": "VEC4"
        },
        {
            "name": "stg2_A_GEOShape#5/vertices/NORMAL",
            "bufferView": 1,
            "byteOffset": 254448,
            "componentType": 5126,
            "count": 289,
            "max": [
                0.992253601551056,
                0.9907358288764954,
                0.9961948394775392
            ],
            "min": [
                -0.9940565824508668,
                -0.5681378245353699,
                -0.9995648860931397
            ],
            "type": "VEC3"
        },
        {
            "name": "stg2_A_GEOShape#5/vertices/POSITION",
            "bufferView": 1,
            "byteOffset": 257916,
            "componentType": 5126,
            "count": 289,
            "max": [
                1611.6348876953126,
                192.18846130371098,
                -7441.94873046875
            ],
            "min": [
                1346.8533935546876,
                -287.90472412109377,
                -7749.35205078125
            ],
            "type": "VEC3"
        },
        {
            "name": "stg2_A_GEOShape#5/vertices/TANGENT",
            "bufferView": 2,
            "byteOffset": 174256,
            "componentType": 5126,
            "count": 289,
            "max": [
                0.9980146288871764,
                0.7112067341804504,
                0.9956271648406982,
                1.0
            ],
            "min": [
                -0.9973365664482116,
                -0.5081196427345276,
                -0.99978768825531,
                1.0
            ],
            "type": "VEC4"
        },
        {
            "name": "stg2_A_GEOShape#5/vertices/TEXCOORD_2",
            "bufferView": 3,
            "byteOffset": 84816,
            "componentType": 5126,
            "count": 289,
            "max": [
                0.9991611242294312,
                0.998488187789917
            ],
            "min": [
                0.0706295371055603,
                0.01535320281982422
            ],
            "type": "VEC2"
        },
        {
            "name": "stg2_A_GEOShape#6/indices",
            "bufferView": 0,
            "byteOffset": 55632,
            "componentType": 5123,
            "count": 72,
            "max": [
                47
            ],
            "min": [
                0
            ],
            "type": "SCALAR"
        },
        {
            "name": "stg2_A_GEOShape#6/vertices/NORMAL",
            "bufferView": 1,
            "byteOffset": 261384,
            "componentType": 5126,
            "count": 48,
            "max": [
                0.34335029125213625,
                0.999750316143036,
                0.07878419756889343
            ],
            "min": [
                -0.3967599868774414,
                0.9177135825157166,
                -0.045632630586624148
            ],
            "type": "VEC3"
        },
        {
            "name": "stg2_A_GEOShape#6/vertices/POSITION",
            "bufferView": 1,
            "byteOffset": 261960,
            "componentType": 5126,
            "count": 48,
            "max": [
                2087.3642578125,
                -177.15475463867188,
                10540.798828125
            ],
            "min": [
                -2106.327880859375,
                -312.3651123046875,
                -10553.83203125
            ],
            "type": "VEC3"
        },
        {
            "name": "stg2_A_GEOShape#6/vertices/TANGENT",
            "bufferView": 2,
            "byteOffset": 178880,
            "componentType": 5126,
            "count": 48,
            "max": [
                0.9972511529922484,
                0.08244150876998902,
                0.9997064471244812,
                1.0
            ],
            "min": [
                -0.9999869465827942,
                -1.0,
                -0.9999913573265076,
                -1.0
            ],
            "type": "VEC4"
        },
        {
            "name": "stg2_A_GEOShape#6/vertices/TEXCOORD_0",
            "bufferView": 3,
            "byteOffset": 87128,
            "componentType": 5126,
            "count": 48,
            "max": [
                0.998283624649048,
                0.6921213865280151
            ],
            "min": [
                0.8176140189170837,
                0.002383946906775236
            ],
            "type": "VEC2"
        },
        {
            "name": "stg2_A_GEOShape#6/vertices/TEXCOORD_1",
            "bufferView": 3,
            "byteOffset": 87512,
            "componentType": 5126,
            "count": 48,
            "max": [
                1.0,
                1.0
            ],
            "min": [
                0.0,
                0.0
            ],
            "type": "VEC2"
        }
    ],
    "bufferViews": [
        {
            "name": "stg2_A/data/indices-2",
            "buffer": 0,
            "byteOffset": 530080,
            "byteLength": 55776,
            "target": 34963
        },
        {
            "name": "stg2_A/data/vertices-12",
            "buffer": 0,
            "byteOffset": 179648,
            "byteLength": 262536,
            "byteStride": 12,
            "target": 34962
        },
        {
            "name": "stg2_A/data/vertices-16",
            "buffer": 0,
            "byteOffset": 0,
            "byteLength": 179648,
            "byteStride": 16,
            "target": 34962
        },
        {
            "name": "stg2_A/data/vertices-8",
            "buffer": 0,
            "byteOffset": 442184,
            "byteLength": 87896,
            "byteStride": 8,
            "target": 34962
        }
    ],
    "buffers": [
        {
            "name": "stg2_A/data",
            "byteLength": 585856,
            "uri": "stg2_A0.bin"
        }
    ]
}
