{
    "asset": {
        "copyright": "(C)2023 sprou",
        "generator": "maya2glTF v1.4.0 3d7ba8eaf03e",
        "version": "2.0"
    },
    "scenes": [
        {
            "nodes": [
                0
            ]
        }
    ],
    "scene": 0,
    "nodes": [
        {
            "name": "stg2_C_GEO",
            "mesh": 0
        }
    ],
    "meshes": [
        {
            "name": "stg2_C_GEOShape",
            "extras": {
                "targetNames": []
            },
            "primitives": [
                {
                    "attributes": {
                        "NORMAL": 1,
                        "POSITION": 2,
                        "TANGENT": 3,
                        "TEXCOORD_0": 4
                    },
                    "indices": 0,
                    "mode": 4,
                    "material": 0
                },
                {
                    "attributes": {
                        "NORMAL": 6,
                        "POSITION": 7,
                        "TANGENT": 8,
                        "TEXCOORD_0": 9
                    },
                    "indices": 5,
                    "mode": 4,
                    "material": 1
                },
                {
                    "attributes": {
                        "NORMAL": 11,
                        "POSITION": 12,
                        "TANGENT": 13,
                        "TEXCOORD_0": 14
                    },
                    "indices": 10,
                    "mode": 4,
                    "material": 2
                },
                {
                    "attributes": {
                        "NORMAL": 16,
                        "POSITION": 17,
                        "TANGENT": 18,
                        "TEXCOORD_0": 19
                    },
                    "indices": 15,
                    "mode": 4,
                    "material": 3
                }
            ]
        }
    ],
    "materials": [
        {
            "name": "stg2_prop1",
            "pbrMetallicRoughness": {
                "baseColorFactor": [
                    0.800000011920929,
                    0.800000011920929,
                    0.800000011920929,
                    1.0
                ],
                "baseColorTexture": {
                    "index": 0
                },
                "metallicFactor": 0.0,
                "roughnessFactor": 1.0
            }
        },
        {
            "name": "crystal_MAT",
            "pbrMetallicRoughness": {
                "baseColorFactor": [
                    0.800000011920929,
                    0.800000011920929,
                    0.800000011920929,
                    1.0
                ],
                "baseColorTexture": {
                    "index": 1
                },
                "metallicFactor": 0.0,
                "roughnessFactor": 1.0
            }
        },
        {
            "name": "stg2_land",
            "pbrMetallicRoughness": {
                "baseColorFactor": [
                    0.800000011920929,
                    0.800000011920929,
                    0.800000011920929,
                    1.0
                ],
                "baseColorTexture": {
                    "index": 2
                },
                "metallicFactor": 0.0,
                "roughnessFactor": 1.0
            }
        },
        {
            "name": "chickenwing_MAT",
            "pbrMetallicRoughness": {
                "baseColorFactor": [
                    0.800000011920929,
                    0.800000011920929,
                    0.800000011920929,
                    1.0
                ],
                "baseColorTexture": {
                    "index": 3
                },
                "metallicFactor": 0.0,
                "roughnessFactor": 1.0
            }
        }
    ],
    "textures": [
        {
            "sampler": 0,
            "source": 0
        },
        {
            "sampler": 0,
            "source": 1
        },
        {
            "sampler": 0,
            "source": 2
        },
        {
            "sampler": 0,
            "source": 3
        }
    ],
    "images": [
        {
            "uri": "stg2_prop1_colour.jpg"
        },
        {
            "uri": "stg2_crystals_colour.jpg"
        },
        {
            "uri": "stg2_land1_colour.jpg"
        },
        {
            "uri": "stg2_nasilemak_color.jpg"
        }
    ],
    "samplers": [
        {
            "magFilter": 9729,
            "minFilter": 9987,
            "wrapS": 10497,
            "wrapT": 10497
        }
    ],
    "accessors": [
        {
            "name": "stg2_C_GEOShape#0/indices",
            "bufferView": 0,
            "byteOffset": 0,
            "componentType": 5123,
            "count": 11826,
            "max": [
                3546
            ],
            "min": [
                0
            ],
            "type": "SCALAR"
        },
        {
            "name": "stg2_C_GEOShape#0/vertices/NORMAL",
            "bufferView": 1,
            "byteOffset": 0,
            "componentType": 5126,
            "count": 3547,
            "max": [
                0.9999915957450868,
                0.9999969601631165,
                0.9999594688415529
            ],
            "min": [
                -0.999991536140442,
                -0.999947726726532,
                -0.9999998807907105
            ],
            "type": "VEC3"
        },
        {
            "name": "stg2_C_GEOShape#0/vertices/POSITION",
            "bufferView": 1,
            "byteOffset": 42564,
            "componentType": 5126,
            "count": 3547,
            "max": [
                1652.0047607421876,
                2237.97216796875,
                9764.490234375
            ],
            "min": [
                -1656.206787109375,
                -606.0588989257813,
                -6608.14697265625
            ],
            "type": "VEC3"
        },
        {
            "name": "stg2_C_GEOShape#0/vertices/TANGENT",
            "bufferView": 2,
            "byteOffset": 0,
            "componentType": 5126,
            "count": 3547,
            "max": [
                0.9998610019683838,
                0.9999884366989136,
                0.9998465180397034,
                1.0
            ],
            "min": [
                -0.9999839663505554,
                -0.99861741065979,
                -0.9999478459358216,
                -1.0
            ],
            "type": "VEC4"
        },
        {
            "name": "stg2_C_GEOShape#0/vertices/TEXCOORD_0",
            "bufferView": 3,
            "byteOffset": 0,
            "componentType": 5126,
            "count": 3547,
            "max": [
                0.9938833117485046,
                0.9951509833335877
            ],
            "min": [
                0.001972436904907227,
                0.13234275579452516
            ],
            "type": "VEC2"
        },
        {
            "name": "stg2_C_GEOShape#1/indices",
            "bufferView": 0,
            "byteOffset": 23652,
            "componentType": 5123,
            "count": 4863,
            "max": [
                3728
            ],
            "min": [
                0
            ],
            "type": "SCALAR"
        },
        {
            "name": "stg2_C_GEOShape#1/vertices/NORMAL",
            "bufferView": 1,
            "byteOffset": 85128,
            "componentType": 5126,
            "count": 3729,
            "max": [
                0.9967795014381408,
                0.9967305660247804,
                1.0
            ],
            "min": [
                -0.9899194836616516,
                -0.9342355728149414,
                -0.9995827078819276
            ],
            "type": "VEC3"
        },
        {
            "name": "stg2_C_GEOShape#1/vertices/POSITION",
            "bufferView": 1,
            "byteOffset": 129876,
            "componentType": 5126,
            "count": 3729,
            "max": [
                1972.563232421875,
                2481.753662109375,
                6475.62548828125
            ],
            "min": [
                -2012.721923828125,
                -466.230712890625,
                -10527.470703125
            ],
            "type": "VEC3"
        },
        {
            "name": "stg2_C_GEOShape#1/vertices/TANGENT",
            "bufferView": 2,
            "byteOffset": 56752,
            "componentType": 5126,
            "count": 3729,
            "max": [
                0.999371349811554,
                0.9998103976249696,
                0.9981505274772644,
                1.0
            ],
            "min": [
                -0.9996811151504516,
                -0.9973117709159852,
                -0.9999288320541382,
                -1.0
            ],
            "type": "VEC4"
        },
        {
            "name": "stg2_C_GEOShape#1/vertices/TEXCOORD_0",
            "bufferView": 3,
            "byteOffset": 28376,
            "componentType": 5126,
            "count": 3729,
            "max": [
                0.9854371547698976,
                0.9976298809051514
            ],
            "min": [
                0.0,
                0.006888329982757568
            ],
            "type": "VEC2"
        },
        {
            "name": "stg2_C_GEOShape#2/indices",
            "bufferView": 0,
            "byteOffset": 33378,
            "componentType": 5123,
            "count": 4746,
            "max": [
                1833
            ],
            "min": [
                0
            ],
            "type": "SCALAR"
        },
        {
            "name": "stg2_C_GEOShape#2/vertices/NORMAL",
            "bufferView": 1,
            "byteOffset": 174624,
            "componentType": 5126,
            "count": 1834,
            "max": [
                1.0,
                1.0,
                0.8827877640724182
            ],
            "min": [
                -1.0,
                -1.0,
                -0.8827878832817078
            ],
            "type": "VEC3"
        },
        {
            "name": "stg2_C_GEOShape#2/vertices/POSITION",
            "bufferView": 1,
            "byteOffset": 196632,
            "componentType": 5126,
            "count": 1834,
            "max": [
                2087.36669921875,
                2114.976318359375,
                10540.798828125
            ],
            "min": [
                -2106.327880859375,
                -666.57470703125,
                -10553.83203125
            ],
            "type": "VEC3"
        },
        {
            "name": "stg2_C_GEOShape#2/vertices/TANGENT",
            "bufferView": 2,
            "byteOffset": 116416,
            "componentType": 5126,
            "count": 1834,
            "max": [
                0.9999882578849793,
                1.0,
                1.0,
                1.0
            ],
            "min": [
                -1.0,
                -1.0,
                -1.0,
                -1.0
            ],
            "type": "VEC4"
        },
        {
            "name": "stg2_C_GEOShape#2/vertices/TEXCOORD_0",
            "bufferView": 3,
            "byteOffset": 58208,
            "componentType": 5126,
            "count": 1834,
            "max": [
                0.998283624649048,
                0.996263325214386
            ],
            "min": [
                0.00417819619178772,
                0.002114058006554842
            ],
            "type": "VEC2"
        },
        {
            "name": "stg2_C_GEOShape#3/indices",
            "bufferView": 0,
            "byteOffset": 42870,
            "componentType": 5123,
            "count": 13824,
            "max": [
                2609
            ],
            "min": [
                0
            ],
            "type": "SCALAR"
        },
        {
            "name": "stg2_C_GEOShape#3/vertices/NORMAL",
            "bufferView": 1,
            "byteOffset": 218640,
            "componentType": 5126,
            "count": 2610,
            "max": [
                0.9985795617103576,
                0.999857485294342,
                0.9987553954124452
            ],
            "min": [
                -0.994153618812561,
                -0.9982638955116272,
                -0.9998849630355836
            ],
            "type": "VEC3"
        },
        {
            "name": "stg2_C_GEOShape#3/vertices/POSITION",
            "bufferView": 1,
            "byteOffset": 249960,
            "componentType": 5126,
            "count": 2610,
            "max": [
                1367.5318603515626,
                43.0743408203125,
                9291.927734375
            ],
            "min": [
                -1573.5838623046876,
                -423.7581176757813,
                96.48179626464844
            ],
            "type": "VEC3"
        },
        {
            "name": "stg2_C_GEOShape#3/vertices/TANGENT",
            "bufferView": 2,
            "byteOffset": 145760,
            "componentType": 5126,
            "count": 2610,
            "max": [
                0.998543918132782,
                0.9389668703079224,
                0.9998785853385924,
                1.0
            ],
            "min": [
                -0.989006519317627,
                -0.9998414516448976,
                -0.991828978061676,
                -1.0
            ],
            "type": "VEC4"
        },
        {
            "name": "stg2_C_GEOShape#3/vertices/TEXCOORD_0",
            "bufferView": 3,
            "byteOffset": 72880,
            "componentType": 5126,
            "count": 2610,
            "max": [
                0.40613603591918948,
                0.9161043167114258
            ],
            "min": [
                0.0027219350449740888,
                0.6511014103889465
            ],
            "type": "VEC2"
        }
    ],
    "bufferViews": [
        {
            "name": "stg2_C/data/indices-2",
            "buffer": 0,
            "byteOffset": 562560,
            "byteLength": 70518,
            "target": 34963
        },
        {
            "name": "stg2_C/data/vertices-12",
            "buffer": 0,
            "byteOffset": 187520,
            "byteLength": 281280,
            "byteStride": 12,
            "target": 34962
        },
        {
            "name": "stg2_C/data/vertices-16",
            "buffer": 0,
            "byteOffset": 0,
            "byteLength": 187520,
            "byteStride": 16,
            "target": 34962
        },
        {
            "name": "stg2_C/data/vertices-8",
            "buffer": 0,
            "byteOffset": 468800,
            "byteLength": 93760,
            "byteStride": 8,
            "target": 34962
        }
    ],
    "buffers": [
        {
            "name": "stg2_C/data",
            "byteLength": 633078,
            "uri": "stg2_C0.bin"
        }
    ]
}
