{
    "asset": {
        "copyright": "(C)2023 post",
        "generator": "maya2glTF v1.4.0 3d7ba8eaf03e",
        "version": "2.0"
    },
    "scenes": [
        {
            "nodes": [
                0
            ]
        }
    ],
    "scene": 0,
    "nodes": [
        {
            "name": "stage1a_GEO",
            "children": [
                1
            ],
            "translation": [
                0.0,
                1373.0062255859376,
                -0.0302734375
            ]
        },
        {
            "name": "stage1a_GEO:PIV",
            "mesh": 0,
            "translation": [
                0.0,
                -1373.0062255859376,
                0.0302734375
            ]
        }
    ],
    "meshes": [
        {
            "name": "stage1a_GEOShape",
            "extras": {
                "targetNames": []
            },
            "primitives": [
                {
                    "attributes": {
                        "NORMAL": 1,
                        "POSITION": 2,
                        "TANGENT": 3,
                        "TEXCOORD_0": 4
                    },
                    "indices": 0,
                    "mode": 4,
                    "material": 0
                },
                {
                    "attributes": {
                        "NORMAL": 6,
                        "POSITION": 7,
                        "TANGENT": 8,
                        "TEXCOORD_0": 9
                    },
                    "indices": 5,
                    "mode": 4,
                    "material": 1
                },
                {
                    "attributes": {
                        "NORMAL": 11,
                        "POSITION": 12,
                        "TANGENT": 13,
                        "TEXCOORD_0": 14,
                        "TEXCOORD_1": 15
                    },
                    "indices": 10,
                    "mode": 4,
                    "material": 1
                }
            ]
        }
    ],
    "materials": [
        {
            "name": "land_arnold",
            "pbrMetallicRoughness": {
                "baseColorFactor": [
                    0.800000011920929,
                    0.800000011920929,
                    0.800000011920929,
                    1.0
                ],
                "baseColorTexture": {
                    "index": 0
                },
                "metallicFactor": 0.0,
                "roughnessFactor": 1.0
            }
        },
        {
            "name": "props_arnold",
            "pbrMetallicRoughness": {
                "baseColorFactor": [
                    0.800000011920929,
                    0.800000011920929,
                    0.800000011920929,
                    1.0
                ],
                "baseColorTexture": {
                    "index": 1
                },
                "metallicFactor": 0.0,
                "roughnessFactor": 1.0
            }
        }
    ],
    "textures": [
        {
            "sampler": 0,
            "source": 0
        },
        {
            "sampler": 0,
            "source": 1
        }
    ],
    "images": [
        {
            "uri": "stg1land_colour.png"
        },
        {
            "uri": "stg1props_colour.png"
        }
    ],
    "samplers": [
        {
            "magFilter": 9729,
            "minFilter": 9987,
            "wrapS": 10497,
            "wrapT": 10497
        }
    ],
    "accessors": [
        {
            "name": "stage1a_GEOShape#0/indices",
            "bufferView": 0,
            "byteOffset": 0,
            "componentType": 5123,
            "count": 5214,
            "max": [
                4523
            ],
            "min": [
                0
            ],
            "type": "SCALAR"
        },
        {
            "name": "stage1a_GEOShape#0/vertices/NORMAL",
            "bufferView": 1,
            "byteOffset": 0,
            "componentType": 5126,
            "count": 4524,
            "max": [
                0.9494352340698242,
                1.0,
                0.9036248326301576
            ],
            "min": [
                -0.9705369472503662,
                0.1307334303855896,
                -0.7546131014823914
            ],
            "type": "VEC3"
        },
        {
            "name": "stage1a_GEOShape#0/vertices/POSITION",
            "bufferView": 1,
            "byteOffset": 54288,
            "componentType": 5126,
            "count": 4524,
            "max": [
                13470.107421875,
                1506.6617431640626,
                10504.515625
            ],
            "min": [
                -14262.3369140625,
                -163.30108642578126,
                -10504.576171875
            ],
            "type": "VEC3"
        },
        {
            "name": "stage1a_GEOShape#0/vertices/TANGENT",
            "bufferView": 2,
            "byteOffset": 0,
            "componentType": 5126,
            "count": 4524,
            "max": [
                0.8481278419494629,
                0.9216037392616272,
                1.0,
                1.0
            ],
            "min": [
                -0.7260307669639587,
                -0.9594812393188476,
                -1.0,
                1.0
            ],
            "type": "VEC4"
        },
        {
            "name": "stage1a_GEOShape#0/vertices/TEXCOORD_0",
            "bufferView": 3,
            "byteOffset": 0,
            "componentType": 5126,
            "count": 4524,
            "max": [
                0.9701331853866576,
                0.9846466779708862
            ],
            "min": [
                0.01579463481903076,
                0.06181824207305908
            ],
            "type": "VEC2"
        },
        {
            "name": "stage1a_GEOShape#1/indices",
            "bufferView": 0,
            "byteOffset": 10428,
            "componentType": 5123,
            "count": 28200,
            "max": [
                6449
            ],
            "min": [
                0
            ],
            "type": "SCALAR"
        },
        {
            "name": "stage1a_GEOShape#1/vertices/NORMAL",
            "bufferView": 1,
            "byteOffset": 108576,
            "componentType": 5126,
            "count": 6450,
            "max": [
                0.9998924732208252,
                1.0,
                0.999980330467224
            ],
            "min": [
                -0.999964475631714,
                -1.0,
                -0.9999803900718688
            ],
            "type": "VEC3"
        },
        {
            "name": "stage1a_GEOShape#1/vertices/POSITION",
            "bufferView": 1,
            "byteOffset": 185976,
            "componentType": 5126,
            "count": 6450,
            "max": [
                7055.11962890625,
                3267.65625,
                9787.53515625
            ],
            "min": [
                -3471.5947265625,
                -284.4365539550781,
                -8431.537109375
            ],
            "type": "VEC3"
        },
        {
            "name": "stage1a_GEOShape#1/vertices/TANGENT",
            "bufferView": 2,
            "byteOffset": 72384,
            "componentType": 5126,
            "count": 6450,
            "max": [
                1.0,
                0.9937168955802918,
                1.0,
                1.0
            ],
            "min": [
                -1.0,
                -0.9688847661018372,
                -1.0,
                -1.0
            ],
            "type": "VEC4"
        },
        {
            "name": "stage1a_GEOShape#1/vertices/TEXCOORD_0",
            "bufferView": 3,
            "byteOffset": 36192,
            "componentType": 5126,
            "count": 6450,
            "max": [
                0.9942450523376464,
                0.9592535495758056
            ],
            "min": [
                0.006228446960449219,
                0.008623898029327393
            ],
            "type": "VEC2"
        },
        {
            "name": "stage1a_GEOShape#2/indices",
            "bufferView": 0,
            "byteOffset": 66828,
            "componentType": 5123,
            "count": 1161,
            "max": [
                1160
            ],
            "min": [
                0
            ],
            "type": "SCALAR"
        },
        {
            "name": "stage1a_GEOShape#2/vertices/NORMAL",
            "bufferView": 1,
            "byteOffset": 263376,
            "componentType": 5126,
            "count": 1161,
            "max": [
                0.9886411428451538,
                0.5178933143615723,
                0.999985694885254
            ],
            "min": [
                -0.763996958732605,
                -0.6346396803855896,
                0.15017159283161164
            ],
            "type": "VEC3"
        },
        {
            "name": "stage1a_GEOShape#2/vertices/POSITION",
            "bufferView": 1,
            "byteOffset": 277308,
            "componentType": 5126,
            "count": 1161,
            "max": [
                8673.7158203125,
                2661.038818359375,
                9184.5673828125
            ],
            "min": [
                -7680.8896484375,
                -521.6439208984375,
                -10184.08203125
            ],
            "type": "VEC3"
        },
        {
            "name": "stage1a_GEOShape#2/vertices/TANGENT",
            "bufferView": 2,
            "byteOffset": 175584,
            "componentType": 5126,
            "count": 1161,
            "max": [
                0.5809616446495056,
                0.999998152256012,
                0.5148828625679016,
                1.0
            ],
            "min": [
                -0.40962648391723635,
                -0.9999793767929076,
                -0.43814101815223696,
                -1.0
            ],
            "type": "VEC4"
        },
        {
            "name": "stage1a_GEOShape#2/vertices/TEXCOORD_0",
            "bufferView": 3,
            "byteOffset": 87792,
            "componentType": 5126,
            "count": 1161,
            "max": [
                0.9953920245170592,
                0.9797182679176332
            ],
            "min": [
                0.8108363151550293,
                0.5358014702796936
            ],
            "type": "VEC2"
        },
        {
            "name": "stage1a_GEOShape#2/vertices/TEXCOORD_1",
            "bufferView": 3,
            "byteOffset": 97080,
            "componentType": 5126,
            "count": 1161,
            "max": [
                0.9583471417427064,
                1.0
            ],
            "min": [
                0.009351213462650776,
                -0.003360867965966463
            ],
            "type": "VEC2"
        }
    ],
    "bufferViews": [
        {
            "name": "stage1a/data/indices-2",
            "buffer": 0,
            "byteOffset": 591768,
            "byteLength": 69150,
            "target": 34963
        },
        {
            "name": "stage1a/data/vertices-12",
            "buffer": 0,
            "byteOffset": 194160,
            "byteLength": 291240,
            "byteStride": 12,
            "target": 34962
        },
        {
            "name": "stage1a/data/vertices-16",
            "buffer": 0,
            "byteOffset": 0,
            "byteLength": 194160,
            "byteStride": 16,
            "target": 34962
        },
        {
            "name": "stage1a/data/vertices-8",
            "buffer": 0,
            "byteOffset": 485400,
            "byteLength": 106368,
            "byteStride": 8,
            "target": 34962
        }
    ],
    "buffers": [
        {
            "name": "stage1a/data",
            "byteLength": 660918,
            "uri": "stage1a0.bin"
        }
    ]
}
