{
    "asset": {
        "copyright": "(C)2023 post",
        "generator": "maya2glTF v1.4.0 3d7ba8eaf03e",
        "version": "2.0"
    },
    "scenes": [
        {
            "nodes": [
                0
            ]
        }
    ],
    "scene": 0,
    "nodes": [
        {
            "name": "stage1b_GEO",
            "children": [
                1
            ],
            "translation": [
                0.0,
                1351.9342041015626,
                0.0009765629656612874
            ]
        },
        {
            "name": "stage1b_GEO:PIV",
            "mesh": 0,
            "translation": [
                0.0,
                -1351.9342041015626,
                -0.0009765629656612874
            ]
        }
    ],
    "meshes": [
        {
            "name": "stage1b_GEOShape",
            "extras": {
                "targetNames": []
            },
            "primitives": [
                {
                    "attributes": {
                        "NORMAL": 1,
                        "POSITION": 2,
                        "TANGENT": 3,
                        "TEXCOORD_0": 4,
                        "TEXCOORD_1": 5
                    },
                    "indices": 0,
                    "mode": 4,
                    "material": 0
                },
                {
                    "attributes": {
                        "NORMAL": 7,
                        "POSITION": 8,
                        "TANGENT": 9,
                        "TEXCOORD_0": 10
                    },
                    "indices": 6,
                    "mode": 4,
                    "material": 1
                },
                {
                    "attributes": {
                        "NORMAL": 12,
                        "POSITION": 13,
                        "TANGENT": 14,
                        "TEXCOORD_0": 15
                    },
                    "indices": 11,
                    "mode": 4,
                    "material": 0
                }
            ]
        }
    ],
    "materials": [
        {
            "name": "props_arnold",
            "pbrMetallicRoughness": {
                "baseColorFactor": [
                    0.800000011920929,
                    0.800000011920929,
                    0.800000011920929,
                    1.0
                ],
                "baseColorTexture": {
                    "index": 0
                },
                "metallicFactor": 0.0,
                "roughnessFactor": 1.0
            }
        },
        {
            "name": "land_arnold",
            "pbrMetallicRoughness": {
                "baseColorFactor": [
                    0.800000011920929,
                    0.800000011920929,
                    0.800000011920929,
                    1.0
                ],
                "baseColorTexture": {
                    "index": 1
                },
                "metallicFactor": 0.0,
                "roughnessFactor": 1.0
            }
        }
    ],
    "textures": [
        {
            "sampler": 0,
            "source": 0
        },
        {
            "sampler": 0,
            "source": 1
        }
    ],
    "images": [
        {
            "uri": "stg1props_colour.png"
        },
        {
            "uri": "stg1land_colour.png"
        }
    ],
    "samplers": [
        {
            "magFilter": 9729,
            "minFilter": 9987,
            "wrapS": 10497,
            "wrapT": 10497
        }
    ],
    "accessors": [
        {
            "name": "stage1b_GEOShape#0/indices",
            "bufferView": 0,
            "byteOffset": 0,
            "componentType": 5123,
            "count": 1296,
            "max": [
                1295
            ],
            "min": [
                0
            ],
            "type": "SCALAR"
        },
        {
            "name": "stage1b_GEOShape#0/vertices/NORMAL",
            "bufferView": 1,
            "byteOffset": 0,
            "componentType": 5126,
            "count": 1296,
            "max": [
                0.7616732120513916,
                0.5056256651878357,
                0.999985694885254
            ],
            "min": [
                -0.9975277185440064,
                -0.6430678367614746,
                0.024556633085012437
            ],
            "type": "VEC3"
        },
        {
            "name": "stage1b_GEOShape#0/vertices/POSITION",
            "bufferView": 1,
            "byteOffset": 15552,
            "componentType": 5126,
            "count": 1296,
            "max": [
                8059.32958984375,
                2511.517578125,
                10169.58203125
            ],
            "min": [
                -10444.474609375,
                -298.346435546875,
                -9510.455078125
            ],
            "type": "VEC3"
        },
        {
            "name": "stage1b_GEOShape#0/vertices/TANGENT",
            "bufferView": 2,
            "byteOffset": 0,
            "componentType": 5126,
            "count": 1296,
            "max": [
                0.4846112728118897,
                0.999928891658783,
                0.5225504040718079,
                -1.0
            ],
            "min": [
                -0.5349317789077759,
                -0.9999790787696838,
                -0.42240965366363528,
                -1.0
            ],
            "type": "VEC4"
        },
        {
            "name": "stage1b_GEOShape#0/vertices/TEXCOORD_0",
            "bufferView": 3,
            "byteOffset": 0,
            "componentType": 5126,
            "count": 1296,
            "max": [
                0.9953920245170592,
                0.9797182679176332
            ],
            "min": [
                0.8108363151550293,
                0.5358014702796936
            ],
            "type": "VEC2"
        },
        {
            "name": "stage1b_GEOShape#0/vertices/TEXCOORD_1",
            "bufferView": 3,
            "byteOffset": 10368,
            "componentType": 5126,
            "count": 1296,
            "max": [
                0.9583471417427064,
                1.0
            ],
            "min": [
                0.009351213462650776,
                -0.003360867965966463
            ],
            "type": "VEC2"
        },
        {
            "name": "stage1b_GEOShape#1/indices",
            "bufferView": 0,
            "byteOffset": 2592,
            "componentType": 5123,
            "count": 5214,
            "max": [
                4881
            ],
            "min": [
                0
            ],
            "type": "SCALAR"
        },
        {
            "name": "stage1b_GEOShape#1/vertices/NORMAL",
            "bufferView": 1,
            "byteOffset": 31104,
            "componentType": 5126,
            "count": 4882,
            "max": [
                0.9494352340698242,
                1.0,
                0.9036248326301576
            ],
            "min": [
                -0.9705369472503662,
                0.1307334303855896,
                -0.7546131014823914
            ],
            "type": "VEC3"
        },
        {
            "name": "stage1b_GEOShape#1/vertices/POSITION",
            "bufferView": 1,
            "byteOffset": 89688,
            "componentType": 5126,
            "count": 4882,
            "max": [
                13661.00390625,
                1479.9510498046876,
                10450.623046875
            ],
            "min": [
                -14257.6396484375,
                -140.2406768798828,
                -10573.4609375
            ],
            "type": "VEC3"
        },
        {
            "name": "stage1b_GEOShape#1/vertices/TANGENT",
            "bufferView": 2,
            "byteOffset": 20736,
            "componentType": 5126,
            "count": 4882,
            "max": [
                0.8481284379959106,
                0.9216037392616272,
                1.0,
                1.0
            ],
            "min": [
                -0.7260307669639587,
                -0.9594812393188476,
                -0.999999225139618,
                1.0
            ],
            "type": "VEC4"
        },
        {
            "name": "stage1b_GEOShape#1/vertices/TEXCOORD_0",
            "bufferView": 3,
            "byteOffset": 20736,
            "componentType": 5126,
            "count": 4882,
            "max": [
                0.9738215208053588,
                0.9846466779708862
            ],
            "min": [
                0.01717376708984375,
                0.03430122137069702
            ],
            "type": "VEC2"
        },
        {
            "name": "stage1b_GEOShape#2/indices",
            "bufferView": 0,
            "byteOffset": 13020,
            "componentType": 5123,
            "count": 18612,
            "max": [
                4255
            ],
            "min": [
                0
            ],
            "type": "SCALAR"
        },
        {
            "name": "stage1b_GEOShape#2/vertices/NORMAL",
            "bufferView": 1,
            "byteOffset": 148272,
            "componentType": 5126,
            "count": 4256,
            "max": [
                0.9998924732208252,
                1.0,
                0.9999803900718688
            ],
            "min": [
                -0.9999645352363586,
                -1.0,
                -0.999980330467224
            ],
            "type": "VEC3"
        },
        {
            "name": "stage1b_GEOShape#2/vertices/POSITION",
            "bufferView": 1,
            "byteOffset": 199344,
            "componentType": 5126,
            "count": 4256,
            "max": [
                7771.78662109375,
                3079.275634765625,
                10573.462890625
            ],
            "min": [
                -6444.3466796875,
                -375.4072265625,
                -8253.3515625
            ],
            "type": "VEC3"
        },
        {
            "name": "stage1b_GEOShape#2/vertices/TANGENT",
            "bufferView": 2,
            "byteOffset": 98848,
            "componentType": 5126,
            "count": 4256,
            "max": [
                1.0,
                0.993713915348053,
                1.0,
                1.0
            ],
            "min": [
                -1.0,
                -0.8795253038406372,
                -1.0,
                -1.0
            ],
            "type": "VEC4"
        },
        {
            "name": "stage1b_GEOShape#2/vertices/TEXCOORD_0",
            "bufferView": 3,
            "byteOffset": 59792,
            "componentType": 5126,
            "count": 4256,
            "max": [
                0.9942450523376464,
                0.9600289463996888
            ],
            "min": [
                0.006228446960449219,
                0.008821308612823487
            ],
            "type": "VEC2"
        }
    ],
    "bufferViews": [
        {
            "name": "stage1b/data/indices-2",
            "buffer": 0,
            "byteOffset": 511200,
            "byteLength": 50244,
            "target": 34963
        },
        {
            "name": "stage1b/data/vertices-12",
            "buffer": 0,
            "byteOffset": 166944,
            "byteLength": 250416,
            "byteStride": 12,
            "target": 34962
        },
        {
            "name": "stage1b/data/vertices-16",
            "buffer": 0,
            "byteOffset": 0,
            "byteLength": 166944,
            "byteStride": 16,
            "target": 34962
        },
        {
            "name": "stage1b/data/vertices-8",
            "buffer": 0,
            "byteOffset": 417360,
            "byteLength": 93840,
            "byteStride": 8,
            "target": 34962
        }
    ],
    "buffers": [
        {
            "name": "stage1b/data",
            "byteLength": 561444,
            "uri": "stage1b0.bin"
        }
    ]
}
