{
    "asset": {
        "copyright": "(C)2023 post",
        "generator": "maya2glTF v1.4.0 3d7ba8eaf03e",
        "version": "2.0"
    },
    "scenes": [
        {
            "nodes": [
                0
            ]
        }
    ],
    "scene": 0,
    "nodes": [
        {
            "name": "sky_GEO",
            "children": [
                1
            ],
            "translation": [
                -0.0078125,
                -0.01171875,
                0.0
            ]
        },
        {
            "name": "sky_GEO:PIV",
            "mesh": 0,
            "translation": [
                0.0078125,
                0.01171875,
                0.0
            ]
        }
    ],
    "meshes": [
        {
            "name": "sky_GEOShape",
            "extras": {
                "targetNames": []
            },
            "primitives": [
                {
                    "attributes": {
                        "NORMAL": 1,
                        "POSITION": 2,
                        "TANGENT": 3,
                        "TEXCOORD_0": 4
                    },
                    "indices": 0,
                    "mode": 4,
                    "material": 0
                }
            ]
        }
    ],
    "materials": [
        {
            "name": "lambert6",
            "pbrMetallicRoughness": {
                "baseColorFactor": [
                    0.800000011920929,
                    0.800000011920929,
                    0.800000011920929,
                    1.0
                ],
                "baseColorTexture": {
                    "index": 0
                },
                "metallicFactor": 0.0,
                "roughnessFactor": 1.0
            }
        }
    ],
    "textures": [
        {
            "sampler": 0,
            "source": 0
        }
    ],
    "images": [
        {
            "uri": "stg1_sky_colour.png"
        }
    ],
    "samplers": [
        {
            "magFilter": 9729,
            "minFilter": 9987,
            "wrapS": 10497,
            "wrapT": 10497
        }
    ],
    "accessors": [
        {
            "name": "sky_GEOShape#0/indices",
            "bufferView": 0,
            "byteOffset": 0,
            "componentType": 5123,
            "count": 2280,
            "max": [
                401
            ],
            "min": [
                0
            ],
            "type": "SCALAR"
        },
        {
            "name": "sky_GEOShape#0/vertices/NORMAL",
            "bufferView": 1,
            "byteOffset": 0,
            "componentType": 5126,
            "count": 402,
            "max": [
                1.0,
                1.0,
                1.0
            ],
            "min": [
                -1.0,
                -1.0,
                -1.0
            ],
            "type": "VEC3"
        },
        {
            "name": "sky_GEOShape#0/vertices/POSITION",
            "bufferView": 1,
            "byteOffset": 4824,
            "componentType": 5126,
            "count": 402,
            "max": [
                6999.9921875,
                6999.9931640625,
                7000.0
            ],
            "min": [
                -7000.0078125,
                -7000.0166015625,
                -7000.0
            ],
            "type": "VEC3"
        },
        {
            "name": "sky_GEOShape#0/vertices/TANGENT",
            "bufferView": 2,
            "byteOffset": 0,
            "componentType": 5126,
            "count": 402,
            "max": [
                1.0,
                0.10549705475568772,
                1.0,
                1.0
            ],
            "min": [
                -1.6999999630229469e-8,
                -0.10549578815698624,
                -1.0,
                -1.0
            ],
            "type": "VEC4"
        },
        {
            "name": "sky_GEOShape#0/vertices/TEXCOORD_0",
            "bufferView": 3,
            "byteOffset": 0,
            "componentType": 5126,
            "count": 402,
            "max": [
                1.0,
                1.0000001192092896
            ],
            "min": [
                -5.99999978589949e-8,
                2.3799999837592626e-7
            ],
            "type": "VEC2"
        }
    ],
    "bufferViews": [
        {
            "name": "stg1_sky/data/indices-2",
            "buffer": 0,
            "byteOffset": 19296,
            "byteLength": 4560,
            "target": 34963
        },
        {
            "name": "stg1_sky/data/vertices-12",
            "buffer": 0,
            "byteOffset": 6432,
            "byteLength": 9648,
            "byteStride": 12,
            "target": 34962
        },
        {
            "name": "stg1_sky/data/vertices-16",
            "buffer": 0,
            "byteOffset": 0,
            "byteLength": 6432,
            "byteStride": 16,
            "target": 34962
        },
        {
            "name": "stg1_sky/data/vertices-8",
            "buffer": 0,
            "byteOffset": 16080,
            "byteLength": 3216,
            "byteStride": 8,
            "target": 34962
        }
    ],
    "buffers": [
        {
            "name": "stg1_sky/data",
            "byteLength": 23856,
            "uri": "stg1_sky0.bin"
        }
    ]
}
