{
    "asset": {
        "copyright": "(C)2023 post",
        "generator": "maya2glTF v1.4.0 3d7ba8eaf03e",
        "version": "2.0"
    },
    "scenes": [
        {
            "nodes": [
                0
            ]
        }
    ],
    "scene": 0,
    "nodes": [
        {
            "name": "stg1_B_GEO",
            "children": [
                1
            ],
            "translation": [
                0.03125,
                1640.986572265625,
                40.8828125
            ]
        },
        {
            "name": "stg1_B_GEO:PIV",
            "mesh": 0,
            "translation": [
                -0.03125,
                -1640.986572265625,
                -40.8828125
            ]
        }
    ],
    "meshes": [
        {
            "name": "stg1_B_GEOShape",
            "extras": {
                "targetNames": []
            },
            "primitives": [
                {
                    "attributes": {
                        "NORMAL": 1,
                        "POSITION": 2,
                        "TANGENT": 3,
                        "TEXCOORD_0": 4
                    },
                    "indices": 0,
                    "mode": 4,
                    "material": 0
                },
                {
                    "attributes": {
                        "NORMAL": 6,
                        "POSITION": 7,
                        "TANGENT": 8,
                        "TEXCOORD_0": 9
                    },
                    "indices": 5,
                    "mode": 4,
                    "material": 1
                },
                {
                    "attributes": {
                        "NORMAL": 11,
                        "POSITION": 12,
                        "TANGENT": 13,
                        "TEXCOORD_0": 14,
                        "TEXCOORD_1": 15
                    },
                    "indices": 10,
                    "mode": 4,
                    "material": 1
                },
                {
                    "attributes": {
                        "NORMAL": 17,
                        "POSITION": 18,
                        "TANGENT": 19,
                        "TEXCOORD_0": 20
                    },
                    "indices": 16,
                    "mode": 4,
                    "material": 2
                },
                {
                    "attributes": {
                        "NORMAL": 22,
                        "POSITION": 23,
                        "TANGENT": 24,
                        "TEXCOORD_0": 25,
                        "TEXCOORD_1": 26
                    },
                    "indices": 21,
                    "mode": 4,
                    "material": 2
                }
            ]
        }
    ],
    "materials": [
        {
            "name": "stg1_prop1_MAT",
            "pbrMetallicRoughness": {
                "baseColorFactor": [
                    0.800000011920929,
                    0.800000011920929,
                    0.800000011920929,
                    1.0
                ],
                "baseColorTexture": {
                    "index": 0
                },
                "metallicFactor": 0.0,
                "roughnessFactor": 1.0
            }
        },
        {
            "name": "stg1_prop2_MAT",
            "pbrMetallicRoughness": {
                "baseColorFactor": [
                    0.800000011920929,
                    0.800000011920929,
                    0.800000011920929,
                    1.0
                ],
                "baseColorTexture": {
                    "index": 1
                },
                "metallicFactor": 0.0,
                "roughnessFactor": 1.0
            }
        },
        {
            "name": "stg1_land1_MAT",
            "pbrMetallicRoughness": {
                "baseColorFactor": [
                    0.800000011920929,
                    0.800000011920929,
                    0.800000011920929,
                    1.0
                ],
                "baseColorTexture": {
                    "index": 2
                },
                "metallicFactor": 0.0,
                "roughnessFactor": 1.0
            }
        }
    ],
    "textures": [
        {
            "sampler": 0,
            "source": 0
        },
        {
            "sampler": 0,
            "source": 1
        },
        {
            "sampler": 0,
            "source": 2
        }
    ],
    "images": [
        {
            "uri": "stg1_prop1_colour.png"
        },
        {
            "uri": "stg1_prop2_colour.png"
        },
        {
            "uri": "stg1_land1_colour.png"
        }
    ],
    "samplers": [
        {
            "magFilter": 9729,
            "minFilter": 9987,
            "wrapS": 10497,
            "wrapT": 10497
        }
    ],
    "accessors": [
        {
            "name": "stg1_B_GEOShape#0/indices",
            "bufferView": 0,
            "byteOffset": 0,
            "componentType": 5123,
            "count": 14175,
            "max": [
                3265
            ],
            "min": [
                0
            ],
            "type": "SCALAR"
        },
        {
            "name": "stg1_B_GEOShape#0/vertices/NORMAL",
            "bufferView": 1,
            "byteOffset": 0,
            "componentType": 5126,
            "count": 3266,
            "max": [
                0.9999069571495056,
                0.999823033809662,
                0.9991926550865172
            ],
            "min": [
                -0.9986259341239928,
                -0.9986526966094972,
                -0.9994494318962096
            ],
            "type": "VEC3"
        },
        {
            "name": "stg1_B_GEOShape#0/vertices/POSITION",
            "bufferView": 1,
            "byteOffset": 39192,
            "componentType": 5126,
            "count": 3266,
            "max": [
                3894.1611328125,
                3446.12939453125,
                9214.083984375
            ],
            "min": [
                -8356.0419921875,
                -164.15618896484376,
                -9775.2734375
            ],
            "type": "VEC3"
        },
        {
            "name": "stg1_B_GEOShape#0/vertices/TANGENT",
            "bufferView": 2,
            "byteOffset": 0,
            "componentType": 5126,
            "count": 3266,
            "max": [
                0.9989429712295532,
                0.9998582005500794,
                0.9997693300247192,
                1.0
            ],
            "min": [
                -0.999804139137268,
                -0.999944508075714,
                -0.9998921751976012,
                1.0
            ],
            "type": "VEC4"
        },
        {
            "name": "stg1_B_GEOShape#0/vertices/TEXCOORD_0",
            "bufferView": 3,
            "byteOffset": 0,
            "componentType": 5126,
            "count": 3266,
            "max": [
                0.9979629516601564,
                0.9979968667030336
            ],
            "min": [
                0.001398146036081016,
                0.002717137103900314
            ],
            "type": "VEC2"
        },
        {
            "name": "stg1_B_GEOShape#1/indices",
            "bufferView": 0,
            "byteOffset": 28350,
            "componentType": 5123,
            "count": 14934,
            "max": [
                3543
            ],
            "min": [
                0
            ],
            "type": "SCALAR"
        },
        {
            "name": "stg1_B_GEOShape#1/vertices/NORMAL",
            "bufferView": 1,
            "byteOffset": 78384,
            "componentType": 5126,
            "count": 3544,
            "max": [
                0.9984045028686525,
                0.9999700784683228,
                0.9993440508842468
            ],
            "min": [
                -0.9994487762451172,
                -0.9994450807571412,
                -0.9987489581108092
            ],
            "type": "VEC3"
        },
        {
            "name": "stg1_B_GEOShape#1/vertices/POSITION",
            "bufferView": 1,
            "byteOffset": 120912,
            "componentType": 5126,
            "count": 3544,
            "max": [
                7130.90380859375,
                2268.559326171875,
                10645.96875
            ],
            "min": [
                -8437.501953125,
                -80.51448059082031,
                -10411.6572265625
            ],
            "type": "VEC3"
        },
        {
            "name": "stg1_B_GEOShape#1/vertices/TANGENT",
            "bufferView": 2,
            "byteOffset": 52256,
            "componentType": 5126,
            "count": 3544,
            "max": [
                0.9998776912689208,
                0.9994269013404846,
                0.9999997615814208,
                1.0
            ],
            "min": [
                -0.9999030232429504,
                -0.9999890327453612,
                -0.9998440146446228,
                -1.0
            ],
            "type": "VEC4"
        },
        {
            "name": "stg1_B_GEOShape#1/vertices/TEXCOORD_0",
            "bufferView": 3,
            "byteOffset": 26128,
            "componentType": 5126,
            "count": 3544,
            "max": [
                0.9969768524169922,
                0.9972270727157592
            ],
            "min": [
                0.004136752802878618,
                0.005941987037658691
            ],
            "type": "VEC2"
        },
        {
            "name": "stg1_B_GEOShape#2/indices",
            "bufferView": 0,
            "byteOffset": 58218,
            "componentType": 5123,
            "count": 3,
            "max": [
                2
            ],
            "min": [
                0
            ],
            "type": "SCALAR"
        },
        {
            "name": "stg1_B_GEOShape#2/vertices/NORMAL",
            "bufferView": 1,
            "byteOffset": 163440,
            "componentType": 5126,
            "count": 3,
            "max": [
                -0.028785185888409616,
                0.40001627802848818,
                0.9562957286834716
            ],
            "min": [
                -0.30767959356307986,
                0.1784113496541977,
                0.8736993074417114
            ],
            "type": "VEC3"
        },
        {
            "name": "stg1_B_GEOShape#2/vertices/POSITION",
            "bufferView": 1,
            "byteOffset": 163476,
            "componentType": 5126,
            "count": 3,
            "max": [
                6044.30615234375,
                400.4296569824219,
                6940.52197265625
            ],
            "min": [
                5796.3017578125,
                154.51718139648438,
                6849.32958984375
            ],
            "type": "VEC3"
        },
        {
            "name": "stg1_B_GEOShape#2/vertices/TANGENT",
            "bufferView": 2,
            "byteOffset": 108960,
            "componentType": 5126,
            "count": 3,
            "max": [
                -0.9488624930381776,
                0.10553574562072754,
                -0.06198674440383911,
                1.0
            ],
            "min": [
                -0.9924817085266112,
                0.003784104948863387,
                -0.31531304121017458,
                1.0
            ],
            "type": "VEC4"
        },
        {
            "name": "stg1_B_GEOShape#2/vertices/TEXCOORD_0",
            "bufferView": 3,
            "byteOffset": 54480,
            "componentType": 5126,
            "count": 3,
            "max": [
                0.502511739730835,
                0.09030872583389282
            ],
            "min": [
                0.4606932401657105,
                0.04981344938278198
            ],
            "type": "VEC2"
        },
        {
            "name": "stg1_B_GEOShape#2/vertices/TEXCOORD_1",
            "bufferView": 3,
            "byteOffset": 54504,
            "componentType": 5126,
            "count": 3,
            "max": [
                1.0,
                1.0
            ],
            "min": [
                0.0,
                0.0
            ],
            "type": "VEC2"
        },
        {
            "name": "stg1_B_GEOShape#3/indices",
            "bufferView": 0,
            "byteOffset": 58224,
            "componentType": 5123,
            "count": 42624,
            "max": [
                10577
            ],
            "min": [
                0
            ],
            "type": "SCALAR"
        },
        {
            "name": "stg1_B_GEOShape#3/vertices/NORMAL",
            "bufferView": 1,
            "byteOffset": 163512,
            "componentType": 5126,
            "count": 10578,
            "max": [
                0.99763822555542,
                1.0,
                0.9976240396499634
            ],
            "min": [
                -0.9976381063461304,
                -0.39783915877342226,
                -0.9976239800453186
            ],
            "type": "VEC3"
        },
        {
            "name": "stg1_B_GEOShape#3/vertices/POSITION",
            "bufferView": 1,
            "byteOffset": 290448,
            "componentType": 5126,
            "count": 10578,
            "max": [
                9378.0185546875,
                917.2037353515624,
                10526.8701171875
            ],
            "min": [
                -9378.0185546875,
                -140.2406768798828,
                -10564.203125
            ],
            "type": "VEC3"
        },
        {
            "name": "stg1_B_GEOShape#3/vertices/TANGENT",
            "bufferView": 2,
            "byteOffset": 109008,
            "componentType": 5126,
            "count": 10578,
            "max": [
                0.9544952511787416,
                0.9975469708442688,
                1.0,
                1.0
            ],
            "min": [
                -0.4112378656864166,
                -0.9974340200424194,
                -0.9999991059303284,
                1.0
            ],
            "type": "VEC4"
        },
        {
            "name": "stg1_B_GEOShape#3/vertices/TEXCOORD_0",
            "bufferView": 3,
            "byteOffset": 54528,
            "componentType": 5126,
            "count": 10578,
            "max": [
                0.9544309377670288,
                0.997133731842041
            ],
            "min": [
                0.008114741183817387,
                0.008029818534851075
            ],
            "type": "VEC2"
        },
        {
            "name": "stg1_B_GEOShape#4/indices",
            "bufferView": 0,
            "byteOffset": 143472,
            "componentType": 5123,
            "count": 144,
            "max": [
                95
            ],
            "min": [
                0
            ],
            "type": "SCALAR"
        },
        {
            "name": "stg1_B_GEOShape#4/vertices/NORMAL",
            "bufferView": 1,
            "byteOffset": 417384,
            "componentType": 5126,
            "count": 96,
            "max": [
                0.34335029125213625,
                0.9998510479927064,
                0.23471234738826753
            ],
            "min": [
                -0.3967599868774414,
                0.9177135825157166,
                -0.3485881686210633
            ],
            "type": "VEC3"
        },
        {
            "name": "stg1_B_GEOShape#4/vertices/POSITION",
            "bufferView": 1,
            "byteOffset": 418536,
            "componentType": 5126,
            "count": 96,
            "max": [
                9378.0986328125,
                811.7401123046875,
                10540.798828125
            ],
            "min": [
                -9378.0361328125,
                -88.62771606445313,
                -10553.83203125
            ],
            "type": "VEC3"
        },
        {
            "name": "stg1_B_GEOShape#4/vertices/TANGENT",
            "bufferView": 2,
            "byteOffset": 278256,
            "componentType": 5126,
            "count": 96,
            "max": [
                0.1044124960899353,
                0.34839075803756716,
                0.9999694228172302,
                1.0
            ],
            "min": [
                -0.11094915121793749,
                -0.1488475799560547,
                -0.999992311000824,
                1.0
            ],
            "type": "VEC4"
        },
        {
            "name": "stg1_B_GEOShape#4/vertices/TEXCOORD_0",
            "bufferView": 3,
            "byteOffset": 139152,
            "componentType": 5126,
            "count": 96,
            "max": [
                0.8096970319747925,
                0.6875239014625549
            ],
            "min": [
                0.022480564191937448,
                0.008071422576904297
            ],
            "type": "VEC2"
        },
        {
            "name": "stg1_B_GEOShape#4/vertices/TEXCOORD_1",
            "bufferView": 3,
            "byteOffset": 139920,
            "componentType": 5126,
            "count": 96,
            "max": [
                1.0,
                1.0
            ],
            "min": [
                0.0,
                0.0
            ],
            "type": "VEC2"
        }
    ],
    "bufferViews": [
        {
            "name": "stg1_B/data/indices-2",
            "buffer": 0,
            "byteOffset": 840168,
            "byteLength": 143760,
            "target": 34963
        },
        {
            "name": "stg1_B/data/vertices-12",
            "buffer": 0,
            "byteOffset": 279792,
            "byteLength": 419688,
            "byteStride": 12,
            "target": 34962
        },
        {
            "name": "stg1_B/data/vertices-16",
            "buffer": 0,
            "byteOffset": 0,
            "byteLength": 279792,
            "byteStride": 16,
            "target": 34962
        },
        {
            "name": "stg1_B/data/vertices-8",
            "buffer": 0,
            "byteOffset": 699480,
            "byteLength": 140688,
            "byteStride": 8,
            "target": 34962
        }
    ],
    "buffers": [
        {
            "name": "stg1_B/data",
            "byteLength": 983928,
            "uri": "stg1_B0.bin"
        }
    ]
}
